<?xml version="1.0" encoding="UTF-8"?>
<svg version="1.1" xmlns="http://www.w3.org/2000/svg" width="2048" height="2048">
<path d="M0 0 C17.49 0 34.98 0 53 0 C53.33 1.32 53.66 2.64 54 4 C62.91 4 71.82 4 81 4 C81.33 5.32 81.66 6.64 82 8 C86.95 8 91.9 8 97 8 C97.33 9.32 97.66 10.64 98 12 C101.63 12 105.26 12 109 12 C109.33 13.32 109.66 14.64 110 16 C112.31 16 114.62 16 117 16 C117.33 17.32 117.66 18.64 118 20 C120.31 20 122.62 20 125 20 C125.33 21.32 125.66 22.64 126 24 C128.31 24 130.62 24 133 24 C133.33 25.32 133.66 26.64 134 28 C136.31 28 138.62 28 141 28 C141.33 29.32 141.66 30.64 142 32 C143.32 32.33 144.64 32.66 146 33 C146 33.99 146 34.98 146 36 C148.31 36 150.62 36 153 36 C153.33 37.32 153.66 38.64 154 40 C155.32 40.33 156.64 40.66 158 41 C158 41.99 158 42.98 158 44 C160.31 44 162.62 44 165 44 C165.33 45.32 165.66 46.64 166 48 C167.32 48.33 168.64 48.66 170 49 C170 49.99 170 50.98 170 52 C171.32 52.33 172.64 52.66 174 53 C174 53.99 174 54.98 174 56 C176.31 56 178.62 56 181 56 C181.33 57.32 181.66 58.64 182 60 C183.32 60.33 184.64 60.66 186 61 C186 63.31 186 65.62 186 68 C188.31 68 190.62 68 193 68 C193.33 69.32 193.66 70.64 194 72 C195.32 72.33 196.64 72.66 198 73 C198 73.99 198 74.98 198 76 C199.32 76.33 200.64 76.66 202 77 C202 77.99 202 78.98 202 80 C203.32 80.33 204.64 80.66 206 81 C206 81.99 206 82.98 206 84 C207.32 84.33 208.64 84.66 210 85 C210 85.99 210 86.98 210 88 C211.32 88.33 212.64 88.66 214 89 C214 89.99 214 90.98 214 92 C215.32 92.33 216.64 92.66 218 93 C218 95.31 218 97.62 218 100 C219.32 100.33 220.64 100.66 222 101 C222 101.99 222 102.98 222 104 C223.32 104.33 224.64 104.66 226 105 C226 105.99 226 106.98 226 108 C227.32 108.33 228.64 108.66 230 109 C230 109.99 230 110.98 230 112 C231.32 112.33 232.64 112.66 234 113 C234 113.99 234 114.98 234 116 C235.32 116.33 236.64 116.66 238 117 C238 119.31 238 121.62 238 124 C239.32 124.33 240.64 124.66 242 125 C242 125.99 242 126.98 242 128 C243.32 128.33 244.64 128.66 246 129 C246 129.99 246 130.98 246 132 C247.32 132.33 248.64 132.66 250 133 C250 135.31 250 137.62 250 140 C251.32 140.33 252.64 140.66 254 141 C254 141.99 254 142.98 254 144 C255.32 144.33 256.64 144.66 258 145 C258 145.99 258 146.98 258 148 C259.32 148.33 260.64 148.66 262 149 C262 149.99 262 150.98 262 152 C263.32 152.33 264.64 152.66 266 153 C266 153.99 266 154.98 266 156 C267.32 156.33 268.64 156.66 270 157 C270 159.31 270 161.62 270 164 C271.32 164.33 272.64 164.66 274 165 C274 165.99 274 166.98 274 168 C275.32 168.33 276.64 168.66 278 169 C278 169.99 278 170.98 278 172 C279.32 172.33 280.64 172.66 282 173 C282 173.99 282 174.98 282 176 C283.32 176.33 284.64 176.66 286 177 C286 177.99 286 178.98 286 180 C287.32 180.33 288.64 180.66 290 181 C290 181.99 290 182.98 290 184 C291.32 184.33 292.64 184.66 294 185 C294 185.99 294 186.98 294 188 C295.32 188.33 296.64 188.66 298 189 C298 189.99 298 190.98 298 192 C299.32 192.33 300.64 192.66 302 193 C302 193.99 302 194.98 302 196 C303.32 196.33 304.64 196.66 306 197 C306 197.99 306 198.98 306 200 C307.32 200.33 308.64 200.66 310 201 C310 201.99 310 202.98 310 204 C312.31 204 314.62 204 317 204 C317.33 205.32 317.66 206.64 318 208 C319.32 208.33 320.64 208.66 322 209 C322 209.99 322 210.98 322 212 C323.32 212.33 324.64 212.66 326 213 C326 213.99 326 214.98 326 216 C328.31 216 330.62 216 333 216 C333.33 217.32 333.66 218.64 334 220 C335.32 220.33 336.64 220.66 338 221 C338 221.99 338 222.98 338 224 C340.31 224 342.62 224 345 224 C345.33 225.32 345.66 226.64 346 228 C348.31 228 350.62 228 353 228 C353.33 229.32 353.66 230.64 354 232 C355.32 232.33 356.64 232.66 358 233 C358 233.99 358 234.98 358 236 C360.31 236 362.62 236 365 236 C365.33 237.32 365.66 238.64 366 240 C369.63 240 373.26 240 377 240 C377.33 241.32 377.66 242.64 378 244 C381.63 244 385.26 244 389 244 C389.33 245.32 389.66 246.64 390 248 C393.63 248 397.26 248 401 248 C401.33 249.32 401.66 250.64 402 252 C406.95 252 411.9 252 417 252 C417.33 253.32 417.66 254.64 418 256 C419.32 256.33 420.64 256.66 422 257 C422 257.99 422 258.98 422 260 C423.32 260.33 424.64 260.66 426 261 C426 261.99 426 262.98 426 264 C427.32 264.33 428.64 264.66 430 265 C430 274.24 430 283.48 430 293 C428.02 293.495 428.02 293.495 426 294 C425.67 295.32 425.34 296.64 425 298 C424.01 298 423.02 298 422 298 C421.67 299.32 421.34 300.64 421 302 C420.01 302 419.02 302 418 302 C417.67 303.32 417.34 304.64 417 306 C416.01 306 415.02 306 414 306 C413.67 307.32 413.34 308.64 413 310 C412.01 310 411.02 310 410 310 C409.67 311.32 409.34 312.64 409 314 C406.69 314 404.38 314 402 314 C401.67 315.32 401.34 316.64 401 318 C400.01 318 399.02 318 398 318 C397.67 319.32 397.34 320.64 397 322 C394.69 322 392.38 322 390 322 C389.67 323.32 389.34 324.64 389 326 C388.01 326 387.02 326 386 326 C385.67 327.32 385.34 328.64 385 330 C384.01 330 383.02 330 382 330 C381.67 331.32 381.34 332.64 381 334 C380.01 334 379.02 334 378 334 C377.67 335.32 377.34 336.64 377 338 C374.69 338 372.38 338 370 338 C370 340.31 370 342.62 370 345 C368.02 345.495 368.02 345.495 366 346 C365.67 347.32 365.34 348.64 365 350 C364.01 350 363.02 350 362 350 C361.67 351.32 361.34 352.64 361 354 C360.01 354 359.02 354 358 354 C357.67 355.32 357.34 356.64 357 358 C356.01 358 355.02 358 354 358 C353.67 359.32 353.34 360.64 353 362 C352.01 362 351.02 362 350 362 C350 364.31 350 366.62 350 369 C348.02 369.495 348.02 369.495 346 370 C346 372.31 346 374.62 346 377 C344.02 377.495 344.02 377.495 342 378 C342 380.31 342 382.62 342 385 C340.02 385.495 340.02 385.495 338 386 C338 389.63 338 393.26 338 397 C336.02 397.495 336.02 397.495 334 398 C334 402.95 334 407.9 334 413 C332.02 413.495 332.02 413.495 330 414 C330 418.95 330 423.9 330 429 C328.02 429.495 328.02 429.495 326 430 C326 454.42 326 478.84 326 504 C327.32 504 328.64 504 330 504 C330.33 511.59 330.66 519.18 331 527 C331.99 527.33 332.98 527.66 334 528 C334.33 531.63 334.66 535.26 335 539 C335.99 539.33 336.98 539.66 338 540 C338.33 543.63 338.66 547.26 339 551 C339.99 551.33 340.98 551.66 342 552 C342.33 555.63 342.66 559.26 343 563 C343.99 563.33 344.98 563.66 346 564 C346.33 567.63 346.66 571.26 347 575 C347.99 575.33 348.98 575.66 350 576 C350.33 578.31 350.66 580.62 351 583 C351.99 583.33 352.98 583.66 354 584 C354.33 586.31 354.66 588.62 355 591 C355.99 591.33 356.98 591.66 358 592 C358.33 594.31 358.66 596.62 359 599 C359.99 599.33 360.98 599.66 362 600 C362.33 602.31 362.66 604.62 363 607 C363.99 607.33 364.98 607.66 366 608 C366.33 610.31 366.66 612.62 367 615 C367.99 615.33 368.98 615.66 370 616 C370.33 618.31 370.66 620.62 371 623 C371.99 623.33 372.98 623.66 374 624 C374 624.99 374 625.98 374 627 C375.32 627.33 376.64 627.66 378 628 C378 628.99 378 629.98 378 631 C379.32 631.33 380.64 631.66 382 632 C382 634.31 382 636.62 382 639 C383.32 639.33 384.64 639.66 386 640 C386.33 642.31 386.66 644.62 387 647 C387.99 647.33 388.98 647.66 390 648 C390 648.99 390 649.98 390 651 C391.32 651.33 392.64 651.66 394 652 C394 652.99 394 653.98 394 655 C395.32 655.33 396.64 655.66 398 656 C398 656.99 398 657.98 398 659 C399.32 659.33 400.64 659.66 402 660 C402 660.99 402 661.98 402 663 C403.32 663.33 404.64 663.66 406 664 C406 666.31 406 668.62 406 671 C407.32 671.33 408.64 671.66 410 672 C410 672.99 410 673.98 410 675 C411.32 675.33 412.64 675.66 414 676 C414 676.99 414 677.98 414 679 C415.32 679.33 416.64 679.66 418 680 C418 680.99 418 681.98 418 683 C419.32 683.33 420.64 683.66 422 684 C422 684.99 422 685.98 422 687 C423.32 687.33 424.64 687.66 426 688 C426 688.99 426 689.98 426 691 C427.32 691.33 428.64 691.66 430 692 C430 692.99 430 693.98 430 695 C431.32 695.33 432.64 695.66 434 696 C434 698.31 434 700.62 434 703 C435.32 703.66 436.64 704.32 438 705 C438 705.66 438 706.32 438 707 C439.32 707.66 440.64 708.32 442 709 C442 709.66 442 710.32 442 711 C443.32 711.66 444.64 712.32 446 713 C446 713.66 446 714.32 446 715 C447.32 715.66 448.64 716.32 450 717 C450 717.66 450 718.32 450 719 C451.32 719.66 452.64 720.32 454 721 C454 721.66 454 722.32 454 723 C455.32 723.66 456.64 724.32 458 725 C458 725.66 458 726.32 458 727 C459.32 727.33 460.64 727.66 462 728 C462 730.31 462 732.62 462 735 C463.32 735.66 464.64 736.32 466 737 C466 737.66 466 738.32 466 739 C467.32 739.66 468.64 740.32 470 741 C470 741.66 470 742.32 470 743 C471.32 743.33 472.64 743.66 474 744 C474 746.31 474 748.62 474 751 C475.32 751.66 476.64 752.32 478 753 C478 753.66 478 754.32 478 755 C479.32 755.66 480.64 756.32 482 757 C482 757.66 482 758.32 482 759 C483.32 759.33 484.64 759.66 486 760 C486 762.31 486 764.62 486 767 C487.32 767.66 488.64 768.32 490 769 C490 769.66 490 770.32 490 771 C491.32 771.33 492.64 771.66 494 772 C494 774.31 494 776.62 494 779 C495.32 779.66 496.64 780.32 498 781 C498 781.66 498 782.32 498 783 C499.32 783.66 500.64 784.32 502 785 C502 785.66 502 786.32 502 787 C503.32 787.33 504.64 787.66 506 788 C506 790.31 506 792.62 506 795 C506.99 795 507.98 795 509 795 C509.33 796.32 509.66 797.64 510 799 C511.32 799.33 512.64 799.66 514 800 C514 802.31 514 804.62 514 807 C514.99 807 515.98 807 517 807 C517.33 808.32 517.66 809.64 518 811 C519.32 811.33 520.64 811.66 522 812 C522 814.31 522 816.62 522 819 C522.99 819 523.98 819 525 819 C525.33 820.32 525.66 821.64 526 823 C527.32 823.33 528.64 823.66 530 824 C530 826.31 530 828.62 530 831 C530.99 831 531.98 831 533 831 C533.33 832.32 533.66 833.64 534 835 C535.32 835.33 536.64 835.66 538 836 C538 838.31 538 840.62 538 843 C538.99 843 539.98 843 541 843 C541.12375 843.928125 541.12375 843.928125 541.25 844.875 C541.81258459 847.18437567 541.81258459 847.18437567 544.0625 848.25 C544.701875 848.4975 545.34125 848.745 546 849 C546 850.98 546 852.96 546 855 C546.99 855 547.98 855 549 855 C550.35439668 857.70879335 550.06501451 860.00933268 550 863 C550.99 863 551.98 863 553 863 C553.33 864.32 553.66 865.64 554 867 C554.99 867 555.98 867 557 867 C558.35439668 869.70879335 558.06501451 872.00933268 558 875 C558.99 875 559.98 875 561 875 C562.35439668 877.70879335 562.06501451 880.00933268 562 883 C562.99 883 563.98 883 565 883 C566.35439668 885.70879335 566.06501451 888.00933268 566 891 C566.99 891 567.98 891 569 891 C570.35439668 893.70879335 570.06501451 896.00933268 570 899 C570.99 899 571.98 899 573 899 C574.35439668 901.70879335 574.06501451 904.00933268 574 907 C574.99 907 575.98 907 577 907 C577.33 908.32 577.66 909.64 578 911 C578.99 911 579.98 911 581 911 C582.26237731 913.52475462 582.09856404 915.31200466 582.0625 918.125 C582.05347656 919.03507812 582.04445313 919.94515625 582.03515625 920.8828125 C582.02355469 921.58148437 582.01195312 922.28015625 582 923 C582.99 923 583.98 923 585 923 C586.35439668 925.70879335 586.06501451 928.00933268 586 931 C586.99 931 587.98 931 589 931 C590.35439668 933.70879335 590.06501451 936.00933268 590 939 C590.99 939 591.98 939 593 939 C594.35439668 941.70879335 594.06501451 944.00933268 594 947 C594.99 947 595.98 947 597 947 C598.35439668 949.70879335 598.06501451 952.00933268 598 955 C598.99 955 599.98 955 601 955 C602.26237731 957.52475462 602.09856404 959.31200466 602.0625 962.125 C602.05347656 963.03507812 602.04445313 963.94515625 602.03515625 964.8828125 C602.02355469 965.58148437 602.01195312 966.28015625 602 967 C602.99 967 603.98 967 605 967 C606.35439668 969.70879335 606.06501451 972.00933268 606 975 C606.99 975 607.98 975 609 975 C610.26237731 977.52475462 610.09856404 979.31200466 610.0625 982.125 C610.05347656 983.03507812 610.04445313 983.94515625 610.03515625 984.8828125 C610.02355469 985.58148437 610.01195312 986.28015625 610 987 C610.99 987 611.98 987 613 987 C614.35439668 989.70879335 614.06501451 992.00933268 614 995 C614.99 995 615.98 995 617 995 C618.26237731 997.52475462 618.09856404 999.31200466 618.0625 1002.125 C618.05347656 1003.03507812 618.04445313 1003.94515625 618.03515625 1004.8828125 C618.02355469 1005.58148437 618.01195312 1006.28015625 618 1007 C618.99 1007 619.98 1007 621 1007 C622.26237731 1009.52475462 622.09856404 1011.31200466 622.0625 1014.125 C622.05347656 1015.03507812 622.04445313 1015.94515625 622.03515625 1016.8828125 C622.02355469 1017.58148437 622.01195312 1018.28015625 622 1019 C622.99 1019 623.98 1019 625 1019 C626.26237731 1021.52475462 626.09856404 1023.31200466 626.0625 1026.125 C626.04896484 1027.49011719 626.04896484 1027.49011719 626.03515625 1028.8828125 C626.02355469 1029.58148437 626.01195312 1030.28015625 626 1031 C626.99 1031 627.98 1031 629 1031 C630.26237731 1033.52475462 630.09856404 1035.31200466 630.0625 1038.125 C630.04896484 1039.49011719 630.04896484 1039.49011719 630.03515625 1040.8828125 C630.02355469 1041.58148437 630.01195312 1042.28015625 630 1043 C630.99 1043.33 631.98 1043.66 633 1044 C634.65497356 1047.30994713 634.10084335 1050.99123 634.0625 1054.625 C634.05798828 1055.42679688 634.05347656 1056.22859375 634.04882812 1057.0546875 C634.03703168 1059.03649006 634.01909605 1061.01825433 634 1063 C634.99 1063 635.98 1063 637 1063 C638.50156874 1066.00313748 638.09281204 1068.79067522 638.0625 1072.125 C638.05347656 1073.40632813 638.04445313 1074.68765625 638.03515625 1076.0078125 C638.02355469 1076.99523438 638.01195312 1077.98265625 638 1079 C638.99 1079 639.98 1079 641 1079 C642.50156874 1082.00313748 642.09281204 1084.79067522 642.0625 1088.125 C642.05347656 1089.40632813 642.04445313 1090.68765625 642.03515625 1092.0078125 C642.02355469 1092.99523438 642.01195312 1093.98265625 642 1095 C642.99 1095 643.98 1095 645 1095 C646.1482685 1097.296537 646.11561175 1098.58313167 646.09765625 1101.1328125 C646.09282227 1102.34130859 646.09282227 1102.34130859 646.08789062 1103.57421875 C646.07951172 1104.41597656 646.07113281 1105.25773437 646.0625 1106.125 C646.05798828 1106.97449219 646.05347656 1107.82398438 646.04882812 1108.69921875 C646.03702874 1110.79950909 646.01909306 1112.8997633 646 1115 C646.99 1115 647.98 1115 649 1115 C650.35700647 1117.71401294 650.1123861 1119.84846316 650.09765625 1122.8828125 C650.09282227 1124.63271484 650.09282227 1124.63271484 650.08789062 1126.41796875 C650.07951172 1127.64128906 650.07113281 1128.86460938 650.0625 1130.125 C650.05798828 1131.35605469 650.05347656 1132.58710937 650.04882812 1133.85546875 C650.0370133 1136.90369392 650.02054028 1139.95182314 650 1143 C650.99 1143 651.98 1143 653 1143 C654.63945963 1146.27891925 654.12030178 1149.90613534 654.09765625 1153.5078125 C654.0962413 1154.34843231 654.09482635 1155.18905212 654.09336853 1156.05514526 C654.08776237 1158.74513275 654.07520886 1161.43503759 654.0625 1164.125 C654.05748579 1165.94661338 654.05292275 1167.76822807 654.04882812 1169.58984375 C654.03779094 1174.05992777 654.0205222 1178.52994986 654 1183 C654.99 1183 655.98 1183 657 1183 C658.28216761 1186.84650284 658.13930886 1190.47093108 658.12939453 1194.47875977 C658.13114685 1195.34405304 658.13289917 1196.20934631 658.13470459 1197.1008606 C658.13911015 1199.96439614 658.13618991 1202.82787006 658.1328125 1205.69140625 C658.13348585 1207.67772941 658.13445614 1209.66405249 658.13571167 1211.65037537 C658.13718683 1215.81404403 658.13503965 1219.97769125 658.13037109 1224.14135742 C658.12467021 1229.48715449 658.12795624 1234.8329014 658.13394356 1240.17869663 C658.13755088 1244.28008912 658.13640985 1248.38146964 658.13381577 1252.48286247 C658.13314716 1254.45450789 658.1339726 1256.42615438 658.13629532 1258.39779854 C658.13882503 1261.14877338 658.13497687 1263.89966606 658.12939453 1266.65063477 C658.13243088 1267.88110283 658.13243088 1267.88110283 658.13552856 1269.13642883 C658.11426483 1274.77147034 658.11426483 1274.77147034 657 1277 C656.01 1277 655.02 1277 654 1277 C654.00523682 1277.77714355 654.01047363 1278.55428711 654.01586914 1279.35498047 C654.03660156 1282.86164549 654.04964821 1286.36829763 654.0625 1289.875 C654.07087891 1291.09832031 654.07925781 1292.32164063 654.08789062 1293.58203125 C654.09111328 1294.74863281 654.09433594 1295.91523437 654.09765625 1297.1171875 C654.10289307 1298.19597168 654.10812988 1299.27475586 654.11352539 1300.38623047 C654 1303 654 1303 653 1305 C652.01 1305 651.02 1305 650 1305 C650.01160156 1306.27617188 650.02320313 1307.55234375 650.03515625 1308.8671875 C650.04453417 1310.53645687 650.05363437 1312.20572783 650.0625 1313.875 C650.07087891 1314.71675781 650.07925781 1315.55851562 650.08789062 1316.42578125 C650.09111328 1317.23144531 650.09433594 1318.03710938 650.09765625 1318.8671875 C650.10551147 1319.98262939 650.10551147 1319.98262939 650.11352539 1321.12060547 C650 1323 650 1323 649 1325 C648.01 1325 647.02 1325 646 1325 C646.01160156 1325.69867187 646.02320313 1326.39734375 646.03515625 1327.1171875 C646.04869141 1328.48230469 646.04869141 1328.48230469 646.0625 1329.875 C646.07410156 1330.77992187 646.08570313 1331.68484375 646.09765625 1332.6171875 C646 1335 646 1335 645 1337 C644.01 1337 643.02 1337 642 1337 C642.020625 1337.94875 642.04125 1338.8975 642.0625 1339.875 C642 1343 642 1343 641 1345 C640.01 1345 639.02 1345 638 1345 C637.67 1346.32 637.34 1347.64 637 1349 C636.01 1349 635.02 1349 634 1349 C633.67 1350.32 633.34 1351.64 633 1353 C624.75 1353 616.5 1353 608 1353 C607.67 1351.68 607.34 1350.36 607 1349 C605.68 1348.67 604.36 1348.34 603 1348 C603 1345.69 603 1343.38 603 1341 C601.68 1340.67 600.36 1340.34 599 1340 C599 1337.69 599 1335.38 599 1333 C597.68 1332.67 596.36 1332.34 595 1332 C595 1329.69 595 1327.38 595 1325 C593.68 1324.67 592.36 1324.34 591 1324 C591 1320.37 591 1316.74 591 1313 C589.68 1312.67 588.36 1312.34 587 1312 C587 1309.69 587 1307.38 587 1305 C585.68 1304.67 584.36 1304.34 583 1304 C583 1300.37 583 1296.74 583 1293 C581.68 1292.67 580.36 1292.34 579 1292 C579 1288.37 579 1284.74 579 1281 C577.68 1280.67 576.36 1280.34 575 1280 C575 1277.69 575 1275.38 575 1273 C573.68 1272.67 572.36 1272.34 571 1272 C571 1269.69 571 1267.38 571 1265 C569.68 1264.67 568.36 1264.34 567 1264 C567 1261.69 567 1259.38 567 1257 C565.68 1256.67 564.36 1256.34 563 1256 C563 1253.69 563 1251.38 563 1249 C561.68 1248.67 560.36 1248.34 559 1248 C559 1245.69 559 1243.38 559 1241 C557.68 1240.67 556.36 1240.34 555 1240 C555 1239.01 555 1238.02 555 1237 C553.68 1236.67 552.36 1236.34 551 1236 C551 1235.01 551 1234.02 551 1233 C549.68 1232.67 548.36 1232.34 547 1232 C547 1231.01 547 1230.02 547 1229 C545.35 1229 543.7 1229 542 1229 C542 1233.95 542 1238.9 542 1244 C540.68 1244.33 539.36 1244.66 538 1245 C538 1261.83 538 1278.66 538 1296 C536.68 1296.33 535.36 1296.66 534 1297 C534.00523682 1297.89831543 534.01047363 1298.79663086 534.01586914 1299.72216797 C534.03289725 1303.05062499 534.04544337 1306.37903581 534.05493164 1309.70751953 C534.05996474 1311.1489332 534.06679173 1312.59034176 534.07543945 1314.03173828 C534.08754983 1316.10190085 534.09323847 1318.17199601 534.09765625 1320.2421875 C534.10289307 1321.4885498 534.10812988 1322.73491211 534.11352539 1324.01904297 C534 1327 534 1327 533 1329 C532.01 1329 531.02 1329 530 1329 C530.01160156 1330.27617188 530.02320313 1331.55234375 530.03515625 1332.8671875 C530.04453417 1334.53645687 530.05363437 1336.20572783 530.0625 1337.875 C530.07087891 1338.71675781 530.07925781 1339.55851562 530.08789062 1340.42578125 C530.09111328 1341.23144531 530.09433594 1342.03710938 530.09765625 1342.8671875 C530.10551147 1343.98262939 530.10551147 1343.98262939 530.11352539 1345.12060547 C530 1347 530 1347 529 1349 C528.01 1349 527.02 1349 526 1349 C526 1353.95 526 1358.9 526 1364 C524.68 1364.33 523.36 1364.66 522 1365 C522 1371.27 522 1377.54 522 1384 C520.68 1384.33 519.36 1384.66 518 1385 C518 1389.95 518 1394.9 518 1400 C516.68 1400.33 515.36 1400.66 514 1401 C514 1404.63 514 1408.26 514 1412 C512.68 1412.33 511.36 1412.66 510 1413 C510 1417.95 510 1422.9 510 1428 C508.68 1428.33 507.36 1428.66 506 1429 C506 1432.63 506 1436.26 506 1440 C504.68 1440.33 503.36 1440.66 502 1441 C502 1444.63 502 1448.26 502 1452 C500.68 1452.33 499.36 1452.66 498 1453 C498 1457.95 498 1462.9 498 1468 C496.68 1468.33 495.36 1468.66 494 1469 C494 1472.63 494 1476.26 494 1480 C492.68 1480.33 491.36 1480.66 490 1481 C490 1483.31 490 1485.62 490 1488 C488.68 1488.33 487.36 1488.66 486 1489 C486 1492.63 486 1496.26 486 1500 C484.68 1500.33 483.36 1500.66 482 1501 C482 1503.31 482 1505.62 482 1508 C480.68 1508.33 479.36 1508.66 478 1509 C478 1512.63 478 1516.26 478 1520 C476.68 1520.33 475.36 1520.66 474 1521 C474 1523.31 474 1525.62 474 1528 C472.68 1528.33 471.36 1528.66 470 1529 C470 1531.31 470 1533.62 470 1536 C468.68 1536.33 467.36 1536.66 466 1537 C466 1539.31 466 1541.62 466 1544 C464.68 1544.33 463.36 1544.66 462 1545 C462 1547.31 462 1549.62 462 1552 C460.68 1552.33 459.36 1552.66 458 1553 C458 1555.31 458 1557.62 458 1560 C456.68 1560.33 455.36 1560.66 454 1561 C454 1563.31 454 1565.62 454 1568 C452.68 1568.33 451.36 1568.66 450 1569 C449.67 1570.32 449.34 1571.64 449 1573 C448.01 1573 447.02 1573 446 1573 C446 1575.31 446 1577.62 446 1580 C444.68 1580.33 443.36 1580.66 442 1581 C441.67 1582.32 441.34 1583.64 441 1585 C440.01 1585 439.02 1585 438 1585 C438 1587.31 438 1589.62 438 1592 C436.68 1592.33 435.36 1592.66 434 1593 C433.67 1594.32 433.34 1595.64 433 1597 C432.01 1597 431.02 1597 430 1597 C429.67 1598.32 429.34 1599.64 429 1601 C428.01 1601 427.02 1601 426 1601 C426 1603.31 426 1605.62 426 1608 C424.68 1608.33 423.36 1608.66 422 1609 C421.67 1610.32 421.34 1611.64 421 1613 C420.01 1613 419.02 1613 418 1613 C417.67 1614.32 417.34 1615.64 417 1617 C416.01 1617 415.02 1617 414 1617 C413.67 1618.32 413.34 1619.64 413 1621 C412.01 1621 411.02 1621 410 1621 C409.67 1622.32 409.34 1623.64 409 1625 C408.01 1625 407.02 1625 406 1625 C405.67 1626.32 405.34 1627.64 405 1629 C404.01 1629 403.02 1629 402 1629 C402 1631.31 402 1633.62 402 1636 C400.68 1636.33 399.36 1636.66 398 1637 C397.67 1638.32 397.34 1639.64 397 1641 C396.01 1641 395.02 1641 394 1641 C393.67 1642.32 393.34 1643.64 393 1645 C392.01 1645 391.02 1645 390 1645 C389.67 1646.32 389.34 1647.64 389 1649 C386.69 1649 384.38 1649 382 1649 C381.67 1650.32 381.34 1651.64 381 1653 C380.01 1653 379.02 1653 378 1653 C377.67 1654.32 377.34 1655.64 377 1657 C376.01 1657 375.02 1657 374 1657 C373.67 1658.32 373.34 1659.64 373 1661 C372.01 1661 371.02 1661 370 1661 C369.67 1662.32 369.34 1663.64 369 1665 C368.01 1665 367.02 1665 366 1665 C365.67 1666.32 365.34 1667.64 365 1669 C364.01 1669 363.02 1669 362 1669 C362 1670.65 362 1672.3 362 1674 C362.69867187 1673.98839844 363.39734375 1673.97679687 364.1171875 1673.96484375 C365.48230469 1673.95130859 365.48230469 1673.95130859 366.875 1673.9375 C367.77992187 1673.92589844 368.68484375 1673.91429687 369.6171875 1673.90234375 C372 1674 372 1674 374 1675 C374 1675.99 374 1676.98 374 1678 C374.94875 1677.979375 375.8975 1677.95875 376.875 1677.9375 C380 1678 380 1678 382 1679 C382 1679.99 382 1680.98 382 1682 C382.69867187 1681.98839844 383.39734375 1681.97679687 384.1171875 1681.96484375 C385.48230469 1681.95130859 385.48230469 1681.95130859 386.875 1681.9375 C387.77992187 1681.92589844 388.68484375 1681.91429687 389.6171875 1681.90234375 C392 1682 392 1682 394 1683 C394 1683.99 394 1684.98 394 1686 C394.98742188 1685.98839844 395.97484375 1685.97679687 396.9921875 1685.96484375 C398.27351563 1685.95582031 399.55484375 1685.94679688 400.875 1685.9375 C402.15117188 1685.92589844 403.42734375 1685.91429687 404.7421875 1685.90234375 C408 1686 408 1686 410 1687 C410 1687.99 410 1688.98 410 1690 C410.69867187 1689.98839844 411.39734375 1689.97679687 412.1171875 1689.96484375 C413.48230469 1689.95130859 413.48230469 1689.95130859 414.875 1689.9375 C415.77992187 1689.92589844 416.68484375 1689.91429687 417.6171875 1689.90234375 C420 1690 420 1690 422 1691 C422 1691.99 422 1692.98 422 1694 C422.65597168 1693.99476318 423.31194336 1693.98952637 423.98779297 1693.98413086 C426.95018563 1693.96338728 429.91256303 1693.95034824 432.875 1693.9375 C433.90753906 1693.92912109 434.94007812 1693.92074219 436.00390625 1693.91210938 C436.99003906 1693.90888672 437.97617188 1693.90566406 438.9921875 1693.90234375 C439.90339355 1693.89710693 440.81459961 1693.89187012 441.75341797 1693.88647461 C444 1694 444 1694 446 1695 C446 1695.99 446 1696.98 446 1698 C446.77714355 1697.99476318 447.55428711 1697.98952637 448.35498047 1697.98413086 C451.86164549 1697.96339844 455.36829763 1697.95035179 458.875 1697.9375 C460.09832031 1697.92912109 461.32164063 1697.92074219 462.58203125 1697.91210938 C463.74863281 1697.90888672 464.91523437 1697.90566406 466.1171875 1697.90234375 C467.19597168 1697.89710693 468.27475586 1697.89187012 469.38623047 1697.88647461 C472 1698 472 1698 474 1699 C474 1699.99 474 1700.98 474 1702 C483.9 1702 493.8 1702 504 1702 C504.66 1703.32 505.32 1704.64 506 1706 C513.26 1706 520.52 1706 528 1706 C528.66 1707.32 529.32 1708.64 530 1710 C534.62 1710 539.24 1710 544 1710 C544.66 1711.32 545.32 1712.64 546 1714 C547.98 1714 549.96 1714 552 1714 C552.2475 1714.61875 552.495 1715.2375 552.75 1715.875 C554.22047178 1718.37480203 555.41403076 1718.83316022 558 1720 C558.02891546 1724.45831982 558.04676981 1728.91661569 558.0625 1733.375 C558.07087891 1734.64601563 558.07925781 1735.91703125 558.08789062 1737.2265625 C558.09111328 1738.43828125 558.09433594 1739.65 558.09765625 1740.8984375 C558.10289307 1742.01911621 558.10812988 1743.13979492 558.11352539 1744.29443359 C558 1747 558 1747 557 1749 C556.01 1749 555.02 1749 554 1749 C553.67 1750.32 553.34 1751.64 553 1753 C550.69 1753 548.38 1753 546 1753 C545.67 1754.32 545.34 1755.64 545 1757 C542.69 1757 540.38 1757 538 1757 C537.67 1758.32 537.34 1759.64 537 1761 C533.37 1761 529.74 1761 526 1761 C525.67 1762.32 525.34 1763.64 525 1765 C521.37 1765 517.74 1765 514 1765 C513.67 1766.32 513.34 1767.64 513 1769 C506.73 1769 500.46 1769 494 1769 C493.67 1770.32 493.34 1771.64 493 1773 C485.41 1773 477.82 1773 470 1773 C469.67 1774.32 469.34 1775.64 469 1777 C460.09 1777 451.18 1777 442 1777 C441.67 1778.32 441.34 1779.64 441 1781 C425.49 1781 409.98 1781 394 1781 C393.67 1782.32 393.34 1783.64 393 1785 C380.13 1785 367.26 1785 354 1785 C353.67 1786.32 353.34 1787.64 353 1789 C319.01 1789 285.02 1789 250 1789 C249.67 1790.32 249.34 1791.64 249 1793 C135.48 1793 21.96 1793 -95 1793 C-95.33 1791.68 -95.66 1790.36 -96 1789 C-126.03 1789 -156.06 1789 -187 1789 C-187.33 1787.68 -187.66 1786.36 -188 1785 C-202.19 1785 -216.38 1785 -231 1785 C-231.33 1783.68 -231.66 1782.36 -232 1781 C-243.55 1781 -255.1 1781 -267 1781 C-267.33 1779.68 -267.66 1778.36 -268 1777 C-276.91 1777 -285.82 1777 -295 1777 C-295.33 1775.68 -295.66 1774.36 -296 1773 C-304.91 1773 -313.82 1773 -323 1773 C-323.33 1771.68 -323.66 1770.36 -324 1769 C-332.91 1769 -341.82 1769 -351 1769 C-351.33 1767.68 -351.66 1766.36 -352 1765 C-358.27 1765 -364.54 1765 -371 1765 C-371.33 1763.68 -371.66 1762.36 -372 1761 C-378.27 1761 -384.54 1761 -391 1761 C-391.33 1759.68 -391.66 1758.36 -392 1757 C-398.27 1757 -404.54 1757 -411 1757 C-411.33 1755.68 -411.66 1754.36 -412 1753 C-416.95 1753 -421.9 1753 -427 1753 C-427.33 1751.68 -427.66 1750.36 -428 1749 C-431.63 1749 -435.26 1749 -439 1749 C-439.33 1747.68 -439.66 1746.36 -440 1745 C-444.95 1745 -449.9 1745 -455 1745 C-455.33 1743.68 -455.66 1742.36 -456 1741 C-459.63 1741 -463.26 1741 -467 1741 C-467.33 1739.68 -467.66 1738.36 -468 1737 C-471.63 1737 -475.26 1737 -479 1737 C-479.33 1735.68 -479.66 1734.36 -480 1733 C-482.31 1733 -484.62 1733 -487 1733 C-487.33 1731.68 -487.66 1730.36 -488 1729 C-488.94875 1729.04125 -489.8975 1729.0825 -490.875 1729.125 C-494 1729 -494 1729 -496 1727 C-496.125 1723.875 -496.125 1723.875 -496 1721 C-497.32 1720.67 -498.64 1720.34 -500 1720 C-500 1715.71 -500 1711.42 -500 1707 C-498.68 1706.67 -497.36 1706.34 -496 1706 C-496 1705.01 -496 1704.02 -496 1703 C-494.68 1702.67 -493.36 1702.34 -492 1702 C-492 1701.01 -492 1700.02 -492 1699 C-489.98177083 1698.57682292 -487.96354167 1698.15364583 -485.9453125 1697.73046875 C-483.62953451 1697.07691162 -483.62953451 1697.07691162 -482 1694 C-479.38623047 1693.65942383 -479.38623047 1693.65942383 -476.1171875 1693.70703125 C-474.95058594 1693.71669922 -473.78398438 1693.72636719 -472.58203125 1693.73632812 C-471.35871094 1693.76146484 -470.13539063 1693.78660156 -468.875 1693.8125 C-467.64394531 1693.82603516 -466.41289063 1693.83957031 -465.14453125 1693.85351562 C-462.09592157 1693.88896457 -459.048175 1693.93837921 -456 1694 C-456 1693.01 -456 1692.02 -456 1691 C-453.703463 1689.8517315 -452.41686833 1689.88438825 -449.8671875 1689.90234375 C-448.65869141 1689.90717773 -448.65869141 1689.90717773 -447.42578125 1689.91210938 C-446.58402344 1689.92048828 -445.74226563 1689.92886719 -444.875 1689.9375 C-444.02550781 1689.94201172 -443.17601562 1689.94652344 -442.30078125 1689.95117188 C-440.20049091 1689.96297126 -438.1002367 1689.98090694 -436 1690 C-436 1689.01 -436 1688.02 -436 1687 C-432.99686252 1685.49843126 -430.20932478 1685.90718796 -426.875 1685.9375 C-425.59367187 1685.94652344 -424.31234375 1685.95554687 -422.9921875 1685.96484375 C-422.00476563 1685.97644531 -421.01734375 1685.98804688 -420 1686 C-420 1685.01 -420 1684.02 -420 1683 C-417.47524538 1681.73762269 -415.68799534 1681.90143596 -412.875 1681.9375 C-411.96492188 1681.94652344 -411.05484375 1681.95554687 -410.1171875 1681.96484375 C-409.41851563 1681.97644531 -408.71984375 1681.98804688 -408 1682 C-408 1681.01 -408 1680.02 -408 1679 C-405.47524538 1677.73762269 -403.68799534 1677.90143596 -400.875 1677.9375 C-399.96492188 1677.94652344 -399.05484375 1677.95554687 -398.1171875 1677.96484375 C-397.41851563 1677.97644531 -396.71984375 1677.98804688 -396 1678 C-396 1677.01 -396 1676.02 -396 1675 C-394.68 1674.67 -393.36 1674.34 -392 1674 C-392 1672.35 -392 1670.7 -392 1669 C-394.31 1669 -396.62 1669 -399 1669 C-399.33 1667.68 -399.66 1666.36 -400 1665 C-402.31 1665 -404.62 1665 -407 1665 C-407.33 1663.68 -407.66 1662.36 -408 1661 C-410.31 1661 -412.62 1661 -415 1661 C-415.33 1659.68 -415.66 1658.36 -416 1657 C-418.31 1657 -420.62 1657 -423 1657 C-423.33 1655.68 -423.66 1654.36 -424 1653 C-425.32 1652.67 -426.64 1652.34 -428 1652 C-428 1651.01 -428 1650.02 -428 1649 C-430.31 1649 -432.62 1649 -435 1649 C-435.33 1647.68 -435.66 1646.36 -436 1645 C-437.32 1644.67 -438.64 1644.34 -440 1644 C-440 1643.01 -440 1642.02 -440 1641 C-442.31 1641 -444.62 1641 -447 1641 C-447.33 1639.68 -447.66 1638.36 -448 1637 C-449.32 1636.67 -450.64 1636.34 -452 1636 C-452 1635.01 -452 1634.02 -452 1633 C-454.31 1633 -456.62 1633 -459 1633 C-459.33 1631.68 -459.66 1630.36 -460 1629 C-461.32 1628.67 -462.64 1628.34 -464 1628 C-464 1627.01 -464 1626.02 -464 1625 C-465.32 1624.67 -466.64 1624.34 -468 1624 C-468 1623.01 -468 1622.02 -468 1621 C-469.32 1620.67 -470.64 1620.34 -472 1620 C-472 1619.01 -472 1618.02 -472 1617 C-474.31 1617 -476.62 1617 -479 1617 C-479.33 1615.68 -479.66 1614.36 -480 1613 C-481.32 1612.67 -482.64 1612.34 -484 1612 C-484 1611.01 -484 1610.02 -484 1609 C-485.32 1608.67 -486.64 1608.34 -488 1608 C-488 1607.01 -488 1606.02 -488 1605 C-489.32 1604.67 -490.64 1604.34 -492 1604 C-492 1603.01 -492 1602.02 -492 1601 C-493.32 1600.67 -494.64 1600.34 -496 1600 C-496 1599.01 -496 1598.02 -496 1597 C-497.32 1596.67 -498.64 1596.34 -500 1596 C-500 1595.01 -500 1594.02 -500 1593 C-501.32 1592.67 -502.64 1592.34 -504 1592 C-504 1591.01 -504 1590.02 -504 1589 C-505.32 1588.67 -506.64 1588.34 -508 1588 C-508 1587.01 -508 1586.02 -508 1585 C-509.32 1584.67 -510.64 1584.34 -512 1584 C-512 1583.01 -512 1582.02 -512 1581 C-513.32 1580.67 -514.64 1580.34 -516 1580 C-516 1579.01 -516 1578.02 -516 1577 C-517.32 1576.67 -518.64 1576.34 -520 1576 C-520 1575.01 -520 1574.02 -520 1573 C-521.32 1572.67 -522.64 1572.34 -524 1572 C-524 1571.01 -524 1570.02 -524 1569 C-525.32 1568.67 -526.64 1568.34 -528 1568 C-528 1567.01 -528 1566.02 -528 1565 C-529.32 1564.67 -530.64 1564.34 -532 1564 C-532 1563.01 -532 1562.02 -532 1561 C-533.32 1560.67 -534.64 1560.34 -536 1560 C-536 1557.69 -536 1555.38 -536 1553 C-537.32 1552.67 -538.64 1552.34 -540 1552 C-540 1551.01 -540 1550.02 -540 1549 C-541.32 1548.67 -542.64 1548.34 -544 1548 C-544 1547.01 -544 1546.02 -544 1545 C-545.32 1544.67 -546.64 1544.34 -548 1544 C-548 1541.69 -548 1539.38 -548 1537 C-549.32 1536.67 -550.64 1536.34 -552 1536 C-552 1535.01 -552 1534.02 -552 1533 C-553.32 1532.67 -554.64 1532.34 -556 1532 C-556 1529.69 -556 1527.38 -556 1525 C-557.32 1524.67 -558.64 1524.34 -560 1524 C-560 1523.01 -560 1522.02 -560 1521 C-561.32 1520.67 -562.64 1520.34 -564 1520 C-564 1517.69 -564 1515.38 -564 1513 C-565.32 1512.67 -566.64 1512.34 -568 1512 C-568 1509.69 -568 1507.38 -568 1505 C-569.32 1504.67 -570.64 1504.34 -572 1504 C-572 1501.69 -572 1499.38 -572 1497 C-573.32 1496.67 -574.64 1496.34 -576 1496 C-576 1493.69 -576 1491.38 -576 1489 C-577.32 1488.67 -578.64 1488.34 -580 1488 C-580 1485.69 -580 1483.38 -580 1481 C-581.32 1480.67 -582.64 1480.34 -584 1480 C-584 1477.69 -584 1475.38 -584 1473 C-585.32 1472.67 -586.64 1472.34 -588 1472 C-588 1469.69 -588 1467.38 -588 1465 C-589.32 1464.67 -590.64 1464.34 -592 1464 C-592 1460.37 -592 1456.74 -592 1453 C-593.32 1452.67 -594.64 1452.34 -596 1452 C-596 1448.37 -596 1444.74 -596 1441 C-597.32 1440.67 -598.64 1440.34 -600 1440 C-600 1435.05 -600 1430.1 -600 1425 C-601.32 1424.67 -602.64 1424.34 -604 1424 C-604 1417.73 -604 1411.46 -604 1405 C-605.32 1404.67 -606.64 1404.34 -608 1404 C-608 1392.45 -608 1380.9 -608 1369 C-609.32 1368.67 -610.64 1368.34 -612 1368 C-612 1360.08 -612 1352.16 -612 1344 C-610.68 1343.67 -609.36 1343.34 -608 1343 C-608 1332.77 -608 1322.54 -608 1312 C-606.68 1311.67 -605.36 1311.34 -604 1311 C-604 1306.05 -604 1301.1 -604 1296 C-602.68 1295.67 -601.36 1295.34 -600 1295 C-600 1291.37 -600 1287.74 -600 1284 C-598.68 1283.67 -597.36 1283.34 -596 1283 C-596 1279.37 -596 1275.74 -596 1272 C-594.68 1271.67 -593.36 1271.34 -592 1271 C-592 1268.69 -592 1266.38 -592 1264 C-590.68 1263.67 -589.36 1263.34 -588 1263 C-587.67 1261.68 -587.34 1260.36 -587 1259 C-586.01 1259 -585.02 1259 -584 1259 C-584 1258.34 -584 1257.68 -584 1257 C-586.97 1257 -589.94 1257 -593 1257 C-593.33 1258.32 -593.66 1259.64 -594 1261 C-596.31 1261 -598.62 1261 -601 1261 C-601.33 1262.32 -601.66 1263.64 -602 1265 C-606.95 1265 -611.9 1265 -617 1265 C-617.33 1266.32 -617.66 1267.64 -618 1269 C-620.31 1269 -622.62 1269 -625 1269 C-625.33 1270.32 -625.66 1271.64 -626 1273 C-629.63 1273 -633.26 1273 -637 1273 C-637.33 1274.32 -637.66 1275.64 -638 1277 C-641.63 1277 -645.26 1277 -649 1277 C-649.33 1278.32 -649.66 1279.64 -650 1281 C-653.63 1281 -657.26 1281 -661 1281 C-661.33 1282.32 -661.66 1283.64 -662 1285 C-665.63 1285 -669.26 1285 -673 1285 C-673.33 1286.32 -673.66 1287.64 -674 1289 C-678.95 1289 -683.9 1289 -689 1289 C-689.33 1290.32 -689.66 1291.64 -690 1293 C-693.63 1293 -697.26 1293 -701 1293 C-701.33 1294.32 -701.66 1295.64 -702 1297 C-708.27 1297 -714.54 1297 -721 1297 C-721.33 1298.32 -721.66 1299.64 -722 1301 C-728.27 1301 -734.54 1301 -741 1301 C-741.33 1302.32 -741.66 1303.64 -742 1305 C-763.45 1305 -784.9 1305 -807 1305 C-807.495 1303.515 -807.495 1303.515 -808 1302 C-808.99 1301.67 -809.98 1301.34 -811 1301 C-811.495 1299.515 -811.495 1299.515 -812 1298 C-812.99 1297.67 -813.98 1297.34 -815 1297 C-815.495 1295.515 -815.495 1295.515 -816 1294 C-816.99 1293.67 -817.98 1293.34 -819 1293 C-820.24084307 1290.51831386 -820.12933103 1288.83573801 -820.1328125 1286.0625 C-820.13410156 1285.08539062 -820.13539063 1284.10828125 -820.13671875 1283.1015625 C-820.13285156 1282.07804687 -820.12898437 1281.05453125 -820.125 1280 C-820.13080078 1278.46472656 -820.13080078 1278.46472656 -820.13671875 1276.8984375 C-820.13542969 1275.92132812 -820.13414062 1274.94421875 -820.1328125 1273.9375 C-820.13168457 1273.03902344 -820.13055664 1272.14054687 -820.12939453 1271.21484375 C-820 1269 -820 1269 -819 1267 C-818.01 1266.67 -817.02 1266.34 -816 1266 C-815.67 1265.01 -815.34 1264.02 -815 1263 C-814.01 1263 -813.02 1263 -812 1263 C-812.0309375 1261.576875 -812.0309375 1261.576875 -812.0625 1260.125 C-812 1257 -812 1257 -811 1255 C-810.01 1254.67 -809.02 1254.34 -808 1254 C-807.67 1253.01 -807.34 1252.02 -807 1251 C-806.01 1250.67 -805.02 1250.34 -804 1250 C-803.67 1249.01 -803.34 1248.02 -803 1247 C-802.01 1246.67 -801.02 1246.34 -800 1246 C-799.67 1245.01 -799.34 1244.02 -799 1243 C-798.01 1242.67 -797.02 1242.34 -796 1242 C-795.67 1241.01 -795.34 1240.02 -795 1239 C-794.01 1238.67 -793.02 1238.34 -792 1238 C-791.67 1237.01 -791.34 1236.02 -791 1235 C-790.01 1234.67 -789.02 1234.34 -788 1234 C-787.67 1233.01 -787.34 1232.02 -787 1231 C-786.01 1230.67 -785.02 1230.34 -784 1230 C-783.67 1229.01 -783.34 1228.02 -783 1227 C-782.01 1227 -781.02 1227 -780 1227 C-780.020625 1226.05125 -780.04125 1225.1025 -780.0625 1224.125 C-780 1221 -780 1221 -779 1219 C-778.01 1218.67 -777.02 1218.34 -776 1218 C-775.67 1217.01 -775.34 1216.02 -775 1215 C-774.01 1214.67 -773.02 1214.34 -772 1214 C-771.67 1213.01 -771.34 1212.02 -771 1211 C-770.01 1210.67 -769.02 1210.34 -768 1210 C-767.67 1209.01 -767.34 1208.02 -767 1207 C-766.01 1206.67 -765.02 1206.34 -764 1206 C-763.67 1205.01 -763.34 1204.02 -763 1203 C-762.01 1203 -761.02 1203 -760 1203 C-760.020625 1202.05125 -760.04125 1201.1025 -760.0625 1200.125 C-760 1197 -760 1197 -759 1195 C-758.01 1194.67 -757.02 1194.34 -756 1194 C-755.67 1193.01 -755.34 1192.02 -755 1191 C-754.01 1191 -753.02 1191 -752 1191 C-751.67 1189.68 -751.34 1188.36 -751 1187 C-750.01 1187 -749.02 1187 -748 1187 C-747.67 1185.68 -747.34 1184.36 -747 1183 C-746.01 1183 -745.02 1183 -744 1183 C-743.67 1181.68 -743.34 1180.36 -743 1179 C-742.01 1179 -741.02 1179 -740 1179 C-739.67 1177.68 -739.34 1176.36 -739 1175 C-738.01 1175 -737.02 1175 -736 1175 C-735.67 1173.68 -735.34 1172.36 -735 1171 C-734.01 1171 -733.02 1171 -732 1171 C-732.020625 1170.05125 -732.04125 1169.1025 -732.0625 1168.125 C-732 1165 -732 1165 -731 1163 C-730.01 1163 -729.02 1163 -728 1163 C-727.67 1161.68 -727.34 1160.36 -727 1159 C-726.01 1159 -725.02 1159 -724 1159 C-723.67 1157.68 -723.34 1156.36 -723 1155 C-722.01 1155 -721.02 1155 -720 1155 C-720.020625 1154.05125 -720.04125 1153.1025 -720.0625 1152.125 C-720 1149 -720 1149 -719 1147 C-718.01 1147 -717.02 1147 -716 1147 C-715.67 1145.68 -715.34 1144.36 -715 1143 C-714.01 1143 -713.02 1143 -712 1143 C-711.67 1141.68 -711.34 1140.36 -711 1139 C-710.01 1139 -709.02 1139 -708 1139 C-707.67 1137.68 -707.34 1136.36 -707 1135 C-706.01 1135 -705.02 1135 -704 1135 C-704.020625 1134.05125 -704.04125 1133.1025 -704.0625 1132.125 C-704 1129 -704 1129 -703 1127 C-702.01 1127 -701.02 1127 -700 1127 C-699.67 1125.68 -699.34 1124.36 -699 1123 C-698.01 1123 -697.02 1123 -696 1123 C-695.67 1121.68 -695.34 1120.36 -695 1119 C-694.01 1119 -693.02 1119 -692 1119 C-692.020625 1118.05125 -692.04125 1117.1025 -692.0625 1116.125 C-692 1113 -692 1113 -691 1111 C-690.01 1111 -689.02 1111 -688 1111 C-687.67 1109.68 -687.34 1108.36 -687 1107 C-686.01 1107 -685.02 1107 -684 1107 C-683.67 1105.68 -683.34 1104.36 -683 1103 C-682.01 1103 -681.02 1103 -680 1103 C-680 1100.69 -680 1098.38 -680 1096 C-678.68 1095.67 -677.36 1095.34 -676 1095 C-675.67 1093.68 -675.34 1092.36 -675 1091 C-674.01 1091 -673.02 1091 -672 1091 C-671.67 1089.68 -671.34 1088.36 -671 1087 C-670.01 1087 -669.02 1087 -668 1087 C-668 1084.69 -668 1082.38 -668 1080 C-666.68 1079.67 -665.36 1079.34 -664 1079 C-663.67 1077.68 -663.34 1076.36 -663 1075 C-662.01 1075 -661.02 1075 -660 1075 C-660 1072.69 -660 1070.38 -660 1068 C-658.68 1067.67 -657.36 1067.34 -656 1067 C-655.67 1065.68 -655.34 1064.36 -655 1063 C-654.01 1063 -653.02 1063 -652 1063 C-652 1060.69 -652 1058.38 -652 1056 C-650.68 1055.67 -649.36 1055.34 -648 1055 C-647.67 1053.68 -647.34 1052.36 -647 1051 C-646.01 1051 -645.02 1051 -644 1051 C-643.67 1049.68 -643.34 1048.36 -643 1047 C-642.01 1047 -641.02 1047 -640 1047 C-640 1044.69 -640 1042.38 -640 1040 C-638.68 1039.67 -637.36 1039.34 -636 1039 C-635.67 1037.68 -635.34 1036.36 -635 1035 C-634.01 1035 -633.02 1035 -632 1035 C-632 1032.69 -632 1030.38 -632 1028 C-630.68 1027.67 -629.36 1027.34 -628 1027 C-627.67 1025.68 -627.34 1024.36 -627 1023 C-626.01 1023 -625.02 1023 -624 1023 C-624 1020.69 -624 1018.38 -624 1016 C-622.68 1015.67 -621.36 1015.34 -620 1015 C-619.67 1013.68 -619.34 1012.36 -619 1011 C-618.01 1011 -617.02 1011 -616 1011 C-616 1008.69 -616 1006.38 -616 1004 C-614.68 1003.67 -613.36 1003.34 -612 1003 C-611.67 1001.68 -611.34 1000.36 -611 999 C-610.01 999 -609.02 999 -608 999 C-608 996.69 -608 994.38 -608 992 C-606.68 991.67 -605.36 991.34 -604 991 C-603.67 989.68 -603.34 988.36 -603 987 C-602.01 987 -601.02 987 -600 987 C-600 984.69 -600 982.38 -600 980 C-598.68 979.67 -597.36 979.34 -596 979 C-595.67 977.68 -595.34 976.36 -595 975 C-594.01 975 -593.02 975 -592 975 C-592 972.69 -592 970.38 -592 968 C-590.68 967.67 -589.36 967.34 -588 967 C-587.67 965.68 -587.34 964.36 -587 963 C-586.01 963 -585.02 963 -584 963 C-584 960.69 -584 958.38 -584 956 C-582.68 955.67 -581.36 955.34 -580 955 C-580 952.69 -580 950.38 -580 948 C-578.68 947.67 -577.36 947.34 -576 947 C-575.67 945.68 -575.34 944.36 -575 943 C-574.01 943 -573.02 943 -572 943 C-572 940.69 -572 938.38 -572 936 C-570.68 935.67 -569.36 935.34 -568 935 C-567.67 933.68 -567.34 932.36 -567 931 C-566.01 931 -565.02 931 -564 931 C-564 928.69 -564 926.38 -564 924 C-562.68 923.67 -561.36 923.34 -560 923 C-560 920.69 -560 918.38 -560 916 C-558.68 915.67 -557.36 915.34 -556 915 C-555.67 913.68 -555.34 912.36 -555 911 C-554.01 911 -553.02 911 -552 911 C-552 908.69 -552 906.38 -552 904 C-550.68 903.67 -549.36 903.34 -548 903 C-547.67 901.68 -547.34 900.36 -547 899 C-546.01 899 -545.02 899 -544 899 C-544 896.69 -544 894.38 -544 892 C-542.68 891.67 -541.36 891.34 -540 891 C-540 888.69 -540 886.38 -540 884 C-538.68 883.67 -537.36 883.34 -536 883 C-536 880.69 -536 878.38 -536 876 C-534.68 875.67 -533.36 875.34 -532 875 C-531.67 873.68 -531.34 872.36 -531 871 C-530.01 871 -529.02 871 -528 871 C-528 868.69 -528 866.38 -528 864 C-526.68 863.67 -525.36 863.34 -524 863 C-524 860.69 -524 858.38 -524 856 C-522.68 855.67 -521.36 855.34 -520 855 C-519.67 853.68 -519.34 852.36 -519 851 C-518.01 851 -517.02 851 -516 851 C-516 848.69 -516 846.38 -516 844 C-514.68 843.67 -513.36 843.34 -512 843 C-512 840.69 -512 838.38 -512 836 C-510.68 835.67 -509.36 835.34 -508 835 C-508 832.69 -508 830.38 -508 828 C-506.68 827.67 -505.36 827.34 -504 827 C-504 824.69 -504 822.38 -504 820 C-502.68 819.67 -501.36 819.34 -500 819 C-500 816.69 -500 814.38 -500 812 C-498.68 811.67 -497.36 811.34 -496 811 C-495.67 809.68 -495.34 808.36 -495 807 C-494.01 807 -493.02 807 -492 807 C-492 804.69 -492 802.38 -492 800 C-490.68 799.67 -489.36 799.34 -488 799 C-488 796.69 -488 794.38 -488 792 C-486.68 791.67 -485.36 791.34 -484 791 C-484 788.69 -484 786.38 -484 784 C-482.68 783.67 -481.36 783.34 -480 783 C-479.67 781.68 -479.34 780.36 -479 779 C-478.01 779 -477.02 779 -476 779 C-476 776.69 -476 774.38 -476 772 C-474.68 771.67 -473.36 771.34 -472 771 C-472 768.69 -472 766.38 -472 764 C-470.68 763.67 -469.36 763.34 -468 763 C-468 760.69 -468 758.38 -468 756 C-466.68 755.67 -465.36 755.34 -464 755 C-464 752.69 -464 750.38 -464 748 C-462.68 747.67 -461.36 747.34 -460 747 C-460 744.69 -460 742.38 -460 740 C-458.68 739.67 -457.36 739.34 -456 739 C-456 736.69 -456 734.38 -456 732 C-454.68 731.67 -453.36 731.34 -452 731 C-452 728.69 -452 726.38 -452 724 C-450.68 723.67 -449.36 723.34 -448 723 C-448 720.69 -448 718.38 -448 716 C-446.68 715.67 -445.36 715.34 -444 715 C-444 712.69 -444 710.38 -444 708 C-442.68 707.67 -441.36 707.34 -440 707 C-440 704.69 -440 702.38 -440 700 C-438.68 699.67 -437.36 699.34 -436 699 C-436 696.69 -436 694.38 -436 692 C-434.68 691.67 -433.36 691.34 -432 691 C-432 688.69 -432 686.38 -432 684 C-430.68 683.67 -429.36 683.34 -428 683 C-428 680.69 -428 678.38 -428 676 C-426.68 675.67 -425.36 675.34 -424 675 C-424 672.69 -424 670.38 -424 668 C-422.68 667.67 -421.36 667.34 -420 667 C-420 664.69 -420 662.38 -420 660 C-418.68 659.67 -417.36 659.34 -416 659 C-416 656.69 -416 654.38 -416 652 C-414.68 651.67 -413.36 651.34 -412 651 C-412 648.69 -412 646.38 -412 644 C-410.68 643.67 -409.36 643.34 -408 643 C-408 639.37 -408 635.74 -408 632 C-406.68 631.67 -405.36 631.34 -404 631 C-404 628.69 -404 626.38 -404 624 C-402.68 623.67 -401.36 623.34 -400 623 C-400 620.69 -400 618.38 -400 616 C-399.01 615.67 -398.02 615.34 -397 615 C-396.67 612.69 -396.34 610.38 -396 608 C-395.01 607.67 -394.02 607.34 -393 607 C-392.67 604.69 -392.34 602.38 -392 600 C-391.01 599.67 -390.02 599.34 -389 599 C-388.67 596.69 -388.34 594.38 -388 592 C-387.01 591.67 -386.02 591.34 -385 591 C-384.67 588.69 -384.34 586.38 -384 584 C-383.01 583.67 -382.02 583.34 -381 583 C-380.67 579.37 -380.34 575.74 -380 572 C-379.01 571.67 -378.02 571.34 -377 571 C-376.67 568.69 -376.34 566.38 -376 564 C-375.01 563.67 -374.02 563.34 -373 563 C-372.67 559.37 -372.34 555.74 -372 552 C-371.01 551.67 -370.02 551.34 -369 551 C-368.67 548.69 -368.34 546.38 -368 544 C-367.01 543.67 -366.02 543.34 -365 543 C-364.67 540.69 -364.34 538.38 -364 536 C-363.01 535.67 -362.02 535.34 -361 535 C-360.67 532.69 -360.34 530.38 -360 528 C-359.01 527.67 -358.02 527.34 -357 527 C-356.67 524.69 -356.34 522.38 -356 520 C-355.01 519.67 -354.02 519.34 -353 519 C-352.67 515.37 -352.34 511.74 -352 508 C-350.68 508 -349.36 508 -348 508 C-348 505.36 -348 502.72 -348 500 C-346.68 500 -345.36 500 -344 500 C-344 496.04 -344 492.08 -344 488 C-342.68 488 -341.36 488 -340 488 C-340 485.36 -340 482.72 -340 480 C-338.68 480 -337.36 480 -336 480 C-336 477.36 -336 474.72 -336 472 C-334.68 472 -333.36 472 -332 472 C-332 469.36 -332 466.72 -332 464 C-330.68 464 -329.36 464 -328 464 C-328 460.04 -328 456.08 -328 452 C-326.68 452 -325.36 452 -324 452 C-324 449.36 -324 446.72 -324 444 C-322.68 444 -321.36 444 -320 444 C-320 441.36 -320 438.72 -320 436 C-318.68 436 -317.36 436 -316 436 C-316 432.04 -316 428.08 -316 424 C-314.68 424 -313.36 424 -312 424 C-312 421.36 -312 418.72 -312 416 C-310.68 416 -309.36 416 -308 416 C-308 413.36 -308 410.72 -308 408 C-306.68 408 -305.36 408 -304 408 C-304 405.36 -304 402.72 -304 400 C-302.68 400 -301.36 400 -300 400 C-300 396.04 -300 392.08 -300 388 C-298.68 388 -297.36 388 -296 388 C-296 385.36 -296 382.72 -296 380 C-294.68 380 -293.36 380 -292 380 C-292 377.36 -292 374.72 -292 372 C-290.68 372 -289.36 372 -288 372 C-288 369.36 -288 366.72 -288 364 C-286.68 364 -285.36 364 -284 364 C-284 360.04 -284 356.08 -284 352 C-280.10522918 351.02630729 -276.99504187 350.86653593 -273 350.875 C-271.783125 350.87242187 -270.56625 350.86984375 -269.3125 350.8671875 C-264.3150289 351.0675578 -264.3150289 351.0675578 -262 352 C-261.34 352.99 -260.68 353.98 -260 355 C-257.74201707 355.39970527 -257.74201707 355.39970527 -255.1328125 355.2578125 C-254.16472656 355.24363281 -253.19664062 355.22945313 -252.19921875 355.21484375 C-250.67748047 355.17037109 -250.67748047 355.17037109 -249.125 355.125 C-247.12769534 355.08152474 -245.13029261 355.04229755 -243.1328125 355.0078125 C-242.24480957 354.98348145 -241.35680664 354.95915039 -240.44189453 354.93408203 C-238.06623546 354.998212 -236.22010998 355.15341408 -234 356 C-233.34 356.99 -232.68 357.98 -232 359 C-229.30744185 359.43277131 -229.30744185 359.43277131 -226.11328125 359.32470703 C-224.87860107 359.32125275 -223.6439209 359.31779846 -222.37182617 359.3142395 C-221.01871515 359.29559681 -219.66560646 359.2767837 -218.3125 359.2578125 C-216.93010218 359.24967831 -215.54769498 359.24301432 -214.1652832 359.23776245 C-210.52280905 359.22062447 -206.88070527 359.18636182 -203.23840332 359.14770508 C-197.40811811 359.08856601 -191.57764441 359.05467912 -185.74716187 359.02193832 C-183.70741026 359.00794905 -181.6678449 358.98635945 -179.62817383 358.96365356 C-177.77615356 358.94901566 -177.77615356 358.94901566 -175.88671875 358.93408203 C-174.25029419 358.91717819 -174.25029419 358.91717819 -172.58081055 358.89993286 C-170 359 -170 359 -168 360 C-168 358.68 -168 357.36 -168 356 C-164.35432513 354.85810433 -160.92117963 354.87069533 -157.1171875 354.8671875 C-156.46170929 354.86623077 -155.80623108 354.86527405 -155.13088989 354.86428833 C-153.75083317 354.86360999 -152.37077319 354.8654401 -150.99072266 354.86962891 C-148.87525317 354.87499936 -146.75999432 354.86966348 -144.64453125 354.86328125 C-143.30208286 354.86394176 -141.95963461 354.86522235 -140.6171875 354.8671875 C-139.39628418 354.86831543 -138.17538086 354.86944336 -136.91748047 354.87060547 C-134 355 -134 355 -132 356 C-132 354.68 -132 353.36 -132 352 C-128.89602241 351.09046238 -126.10489778 350.86535851 -122.875 350.875 C-122.00617187 350.87242187 -121.13734375 350.86984375 -120.2421875 350.8671875 C-118 351 -118 351 -116 352 C-116 350.68 -116 349.36 -116 348 C-114.37585622 347.80522261 -112.75063577 347.61940542 -111.125 347.4375 C-110.22007812 347.33308594 -109.31515625 347.22867187 -108.3828125 347.12109375 C-106 347 -106 347 -104 348 C-104 346.68 -104 345.36 -104 344 C-102.68 344 -101.36 344 -100 344 C-100 342.68 -100 341.36 -100 340 C-98.68 340 -97.36 340 -96 340 C-96 338.68 -96 337.36 -96 336 C-94.68 336 -93.36 336 -92 336 C-92 334.68 -92 333.36 -92 332 C-90.68 332 -89.36 332 -88 332 C-88 330.68 -88 329.36 -88 328 C-86.68 328 -85.36 328 -84 328 C-84 325.36 -84 322.72 -84 320 C-82.68 320 -81.36 320 -80 320 C-80 314.06 -80 308.12 -80 302 C-81.32 302 -82.64 302 -84 302 C-84 299.36 -84 296.72 -84 294 C-85.32 294 -86.64 294 -88 294 C-88 291.36 -88 288.72 -88 286 C-89.32 286 -90.64 286 -92 286 C-92 282.04 -92 278.08 -92 274 C-93.32 274 -94.64 274 -96 274 C-96 270.04 -96 266.08 -96 262 C-97.32 262 -98.64 262 -100 262 C-100 258.04 -100 254.08 -100 250 C-101.32 250 -102.64 250 -104 250 C-104 246.04 -104 242.08 -104 238 C-105.32 238 -106.64 238 -108 238 C-108 234.04 -108 230.08 -108 226 C-109.32 226 -110.64 226 -112 226 C-112 219.4 -112 212.8 -112 206 C-113.32 206 -114.64 206 -116 206 C-116 185.54 -116 165.08 -116 144 C-114.68 144 -113.36 144 -112 144 C-112 134.1 -112 124.2 -112 114 C-113.32 114 -114.64 114 -116 114 C-116 112.68 -116 111.36 -116 110 C-117.32 110 -118.64 110 -120 110 C-120 107.36 -120 104.72 -120 102 C-121.32 102 -122.64 102 -124 102 C-124 99.36 -124 96.72 -124 94 C-125.32 94 -126.64 94 -128 94 C-128 92.68 -128 91.36 -128 90 C-129.32 90 -130.64 90 -132 90 C-132 85.38 -132 80.76 -132 76 C-130.68 76 -129.36 76 -128 76 C-127.67 74.68 -127.34 73.36 -127 72 C-126.01 72 -125.02 72 -124 72 C-123.67 70.68 -123.34 69.36 -123 68 C-122.01 68 -121.02 68 -120 68 C-119.67 66.68 -119.34 65.36 -119 64 C-118.01 64 -117.02 64 -116 64 C-115.67 62.68 -115.34 61.36 -115 60 C-114.01 60 -113.02 60 -112 60 C-111.67 58.68 -111.34 57.36 -111 56 C-110.01 56 -109.02 56 -108 56 C-107.67 54.68 -107.34 53.36 -107 52 C-106.01 52 -105.02 52 -104 52 C-103.67 50.68 -103.34 49.36 -103 48 C-102.01 48 -101.02 48 -100 48 C-99.67 46.68 -99.34 45.36 -99 44 C-98.01 44 -97.02 44 -96 44 C-95.67 42.68 -95.34 41.36 -95 40 C-94.01 40 -93.02 40 -92 40 C-92 38.68 -92 37.36 -92 36 C-89.36 36 -86.72 36 -84 36 C-83.67 34.68 -83.34 33.36 -83 32 C-82.01 32 -81.02 32 -80 32 C-80 30.68 -80 29.36 -80 28 C-77.36 28 -74.72 28 -72 28 C-72 26.68 -72 25.36 -72 24 C-69.36 24 -66.72 24 -64 24 C-63.67 22.68 -63.34 21.36 -63 20 C-62.01 20 -61.02 20 -60 20 C-60 18.68 -60 17.36 -60 16 C-56.04 16 -52.08 16 -48 16 C-48 14.68 -48 13.36 -48 12 C-44.04 12 -40.08 12 -36 12 C-36 10.68 -36 9.36 -36 8 C-32.04 8 -28.08 8 -24 8 C-24 6.68 -24 5.36 -24 4 C-16.08 4 -8.16 4 0 4 C0 2.68 0 1.36 0 0 Z M58 186 C58 187.32 58 188.64 58 190 C56.68 190 55.36 190 54 190 C54 191.32 54 192.64 54 194 C52.68 194 51.36 194 50 194 C50 196.64 50 199.28 50 202 C48.68 202 47.36 202 46 202 C46 205.3 46 208.6 46 212 C47.32 212 48.64 212 50 212 C50 217.28 50 222.56 50 228 C51.32 228 52.64 228 54 228 C54 230.64 54 233.28 54 236 C55.32 236 56.64 236 58 236 C58 237.32 58 238.64 58 240 C59.32 240 60.64 240 62 240 C62 241.32 62 242.64 62 244 C63.32 244 64.64 244 66 244 C66 245.32 66 246.64 66 248 C67.32 248 68.64 248 70 248 C70 249.32 70 250.64 70 252 C71.32 252 72.64 252 74 252 C74 253.32 74 254.64 74 256 C76.64 256 79.28 256 82 256 C82 257.32 82 258.64 82 260 C91.57 260 101.14 260 111 260 C111.495 258.02 111.495 258.02 112 256 C114.31 256 116.62 256 119 256 C119.495 254.02 119.495 254.02 120 252 C120.99 252 121.98 252 123 252 C123.90375653 245.67370431 123.90375653 240.32629569 123 234 C122.01 234 121.02 234 120 234 C119.505 230.04 119.505 230.04 119 226 C118.01 226 117.02 226 116 226 C115.505 222.04 115.505 222.04 115 218 C114.01 218 113.02 218 112 218 C111.505 216.02 111.505 216.02 111 214 C110.01 214 109.02 214 108 214 C107.505 210.04 107.505 210.04 107 206 C106.01 206 105.02 206 104 206 C103.505 204.02 103.505 204.02 103 202 C102.01 202 101.02 202 100 202 C99.505 200.02 99.505 200.02 99 198 C98.01 198 97.02 198 96 198 C95.505 196.02 95.505 196.02 95 194 C94.01 194 93.02 194 92 194 C91.505 192.02 91.505 192.02 91 190 C88.69 190 86.38 190 84 190 C83.505 188.02 83.505 188.02 83 186 C74.75 186 66.5 186 58 186 Z M229.26513672 724.73828125 C227.10121808 724.91173129 224.93609213 725.07076636 222.77001953 725.21484375 C216.91569191 725.62612472 211.7246692 726.36709969 206.125 728.125 C205.42358887 728.34454346 204.72217773 728.56408691 203.99951172 728.7902832 C202.47611369 729.26826711 200.95417196 729.75091306 199.43359375 730.23779297 C196.86192633 731.04324498 194.27776328 731.79181049 191.6875 732.53515625 C178.87005086 736.29340088 167.57089826 741.36725077 156 748 C154.33904297 748.91265625 154.33904297 748.91265625 152.64453125 749.84375 C140.09682892 756.87178935 128.87398048 765.64294778 118 775 C116.97712891 775.85464844 116.97712891 775.85464844 115.93359375 776.7265625 C106.84290378 784.43182373 98.25270066 792.96153884 91.015625 802.43359375 C89.10916543 804.86100448 87.09410407 807.15695576 85.03955078 809.45898438 C70.14697277 826.34100929 59.91310489 848.50462512 51 869 C50.6896582 869.70833984 50.37931641 870.41667969 50.05957031 871.14648438 C39.92764478 894.35780468 33.15549162 918.12848102 29.08959961 943.14013672 C28.57376317 946.21462455 27.9635256 949.10845608 26.96875 952.06640625 C25.87400147 955.38155199 25.45126949 958.46819511 25.0625 961.9375 C24.8980605 963.35427434 24.73263507 964.77093448 24.56640625 966.1875 C24.47762207 966.95449219 24.38883789 967.72148438 24.29736328 968.51171875 C23.741957 973.15925638 23.11411046 977.79742677 22.5 982.4375 C21.60422461 989.2890319 20.70985718 996.14074224 19.875 1003 C19.72804688 1004.19625 19.58109375 1005.3925 19.4296875 1006.625 C17.94276096 1020.74388615 17.7210461 1034.90539301 17.44775391 1049.0859375 C17.39632899 1051.69020844 17.33910349 1054.29430269 17.28125 1056.8984375 C17.26767456 1057.69929779 17.25409912 1058.50015808 17.2401123 1059.32528687 C17.11315173 1064.88684827 17.11315173 1064.88684827 16 1066 C13.18149727 1066.0847003 10.3877397 1066.10425093 7.56933594 1066.08178711 C6.6825264 1066.07872055 5.79571686 1066.07565399 4.8820343 1066.07249451 C2.94174059 1066.06531075 1.00145418 1066.0559062 -0.93881989 1066.04459953 C-4.04912296 1066.02715588 -7.15937397 1066.0168853 -10.26971436 1066.00868225 C-19.12012693 1065.98433419 -27.97047298 1065.94983058 -36.82080078 1065.90405273 C-105.16113986 1065.56304855 -172.58615688 1069.96793209 -239 1087 C-240.11930908 1087.28456055 -241.23861816 1087.56912109 -242.3918457 1087.86230469 C-251.32820524 1090.1828951 -260.06849369 1092.89985856 -268.8125 1095.875 C-270.79780259 1096.54641402 -272.78347497 1097.21672692 -274.76914978 1097.88703918 C-276.0684039 1098.32585383 -277.36744955 1098.76528626 -278.66627502 1099.20536804 C-282.16916609 1100.39059756 -285.67844694 1101.5492604 -289.203125 1102.66796875 C-299.843427 1106.05536116 -310.03571844 1110.23035964 -320.23535156 1114.77050781 C-323.09731786 1116.04327912 -325.96653343 1117.29878682 -328.8359375 1118.5546875 C-337.45323991 1122.36117416 -345.84172956 1126.10129954 -353.6484375 1131.4296875 C-356.13190072 1133.08807988 -358.67166693 1134.482284 -361.3125 1135.875 C-379.43214003 1145.62778075 -395.67884505 1158.34524779 -411 1172 C-411.84522217 1172.75047607 -411.84522217 1172.75047607 -412.70751953 1173.51611328 C-445.09730507 1202.41333806 -468.13876844 1238.98790249 -482 1280 C-482.25007813 1280.67804687 -482.50015625 1281.35609375 -482.7578125 1282.0546875 C-485.55056631 1289.84500076 -487.36009933 1297.90252156 -489 1306 C-489.18771973 1306.92506348 -489.37543945 1307.85012695 -489.56884766 1308.80322266 C-498.63790395 1355.53309288 -492.67727906 1406.00321656 -475 1450 C-474.74347656 1450.64453125 -474.48695313 1451.2890625 -474.22265625 1451.953125 C-467.75196367 1468.17629683 -460.81331342 1483.51450727 -451 1498 C-450.04673828 1499.48886719 -450.04673828 1499.48886719 -449.07421875 1501.0078125 C-444.89421334 1507.49850413 -440.29421833 1513.51566808 -435.42700195 1519.49487305 C-432.44382514 1523.16477009 -429.60101066 1526.88171361 -426.875 1530.75 C-421.33238816 1538.50271385 -414.74022457 1545.28964348 -408 1552 C-406.87144908 1553.15011343 -405.74391945 1554.30122952 -404.6171875 1555.453125 C-397.40927805 1562.78696618 -390.14239774 1569.6946789 -382 1576 C-381.12472656 1576.72703125 -380.24945312 1577.4540625 -379.34765625 1578.203125 C-358.46833421 1595.13079011 -333.2732251 1609.41630126 -307.99609375 1618.53125 C-305.39711036 1619.47108059 -302.83409031 1620.46315107 -300.28515625 1621.53125 C-290.70991516 1625.53711394 -281.04871932 1628.42498812 -271 1631 C-270.29133789 1631.18304687 -269.58267578 1631.36609375 -268.85253906 1631.5546875 C-264.24405202 1632.7406478 -259.62823688 1633.8934921 -255 1635 C-254.08097397 1635.22356674 -253.16194794 1635.44713348 -252.21507263 1635.67747498 C-229.24395884 1641.1453999 -206.53698753 1642.68997827 -183.03515625 1642.57641602 C-180.0981671 1642.56267847 -177.1624793 1642.56960882 -174.22558594 1642.59692383 C-142.65729862 1642.88945292 -112.26621151 1638.61632066 -82.18554688 1628.70947266 C-79.85465824 1627.95281913 -77.51436786 1627.23159551 -75.171875 1626.51171875 C-52.7767265 1619.50145469 -29.307386 1609.67615331 -10.3046875 1595.6640625 C-7.85399779 1593.89458145 -5.3283505 1592.32690422 -2.75 1590.75 C4.2376235 1586.34819198 10.58752942 1581.18534669 17 1576 C17.98484375 1575.21109375 18.9696875 1574.4221875 19.984375 1573.609375 C38.39081505 1558.7386353 56.04183586 1542.17145437 70 1523 C70.75925781 1522.01257812 71.51851562 1521.02515625 72.30078125 1520.0078125 C77.76526842 1512.89171004 82.77458438 1505.52092278 87.67773438 1498.01367188 C89.03759031 1495.9427539 90.41601724 1493.8850874 91.796875 1491.828125 C97.50406181 1483.26340472 102.50159433 1474.61851005 106.89746094 1465.31542969 C108.15189389 1462.68100938 109.43843105 1460.06341518 110.7265625 1457.4453125 C115.56641029 1447.55109481 120.10205235 1437.69924332 123.796875 1427.3203125 C125.05266264 1423.85466478 126.47050501 1420.51911267 128.04296875 1417.1875 C141.85357833 1385.6203924 148.77981209 1350.72175743 155 1317 C155.20463867 1315.91106445 155.40927734 1314.82212891 155.62011719 1313.70019531 C161.13052217 1284.10941674 163.52475875 1253.96809939 166 1224 C167.30332275 1223.98018066 168.60664551 1223.96036133 169.94946289 1223.93994141 C174.90551273 1223.86237401 179.86132461 1223.77392721 184.81713867 1223.68261719 C186.93948584 1223.64493766 189.0618838 1223.609994 191.18432617 1223.578125 C205.38849501 1223.36245079 219.43145522 1222.61311176 233.56997681 1221.23126221 C236.79503115 1220.9243379 240.02373302 1220.67615049 243.25390625 1220.4296875 C257.31662216 1219.24580304 270.95716348 1217.03735112 284.75 1214.125 C285.53698273 1213.96014099 286.32396545 1213.79528198 287.13479614 1213.62542725 C298.25929619 1211.27339093 309.14318619 1208.37311751 320 1205 C321.07024414 1204.6695166 322.14048828 1204.3390332 323.24316406 1203.99853516 C361.46222828 1191.98737543 399.58528382 1173.71081494 429 1146 C430.06098075 1145.02698664 431.12357299 1144.05572845 432.1875 1143.0859375 C434.9836294 1140.53523256 437.75714516 1137.96162616 440.52050781 1135.37548828 C441.78007476 1134.20446515 443.05632433 1133.05142782 444.3359375 1131.90234375 C451.81754707 1124.90745599 457.54823015 1116.42645902 463.47900391 1108.12744141 C464.68834632 1106.43591496 465.91036316 1104.75345154 467.13671875 1103.07421875 C478.90095264 1086.75785706 487.98774351 1068.81132279 495 1050 C495.55300781 1048.5459375 495.55300781 1048.5459375 496.1171875 1047.0625 C512.72145399 1000.72501211 510.11951632 942.8747015 493.7109375 897.01513672 C492.90758786 894.73805982 492.14058374 892.45019968 491.375 890.16015625 C481.01071446 859.42165921 464.29517107 832.39020384 443 808 C441.76056641 806.48986328 441.76056641 806.48986328 440.49609375 804.94921875 C438.11764316 802.13899935 435.62848974 799.57501498 433 797 C432.20722656 796.17242188 431.41445312 795.34484375 430.59765625 794.4921875 C424.11125149 787.79589907 417.25021587 781.96107061 409.80175781 776.36181641 C408.05873907 775.04439655 406.33724249 773.70266214 404.6171875 772.35546875 C387.36412895 759.04512786 368.22934447 748.94611184 348 741 C346.31231755 740.32337155 344.62481577 739.6462923 342.9375 738.96875 C336.33562264 736.34465787 329.83741017 733.950268 323 732 C321.73505773 731.50953606 320.4734551 731.01039543 319.21484375 730.50390625 C314.43906647 728.68134409 309.59059558 727.78717213 304.5625 726.9375 C303.07762085 726.68371582 303.07762085 726.68371582 301.56274414 726.42480469 C277.29803461 722.47981785 253.68023671 722.7279216 229.26513672 724.73828125 Z " fill="#FFFFFF" transform="translate(1039,147)"/>
<path d="M0 0 C51.81 0 103.62 0 157 0 C157.33 0.99 157.66 1.98 158 3 C168.89 3.495 168.89 3.495 180 4 C180.33 5.32 180.66 6.64 181 8 C187.6 8 194.2 8 201 8 C201.33 8.99 201.66 9.98 202 11 C207.445 11.495 207.445 11.495 213 12 C213 13.32 213 14.64 213 16 C216.96 16 220.92 16 225 16 C225 17.32 225 18.64 225 20 C228.96 20 232.92 20 237 20 C237 21.32 237 22.64 237 24 C239.64 24 242.28 24 245 24 C245 25.32 245 26.64 245 28 C247.64 28 250.28 28 253 28 C253 29.32 253 30.64 253 32 C255.64 32 258.28 32 261 32 C261 33.32 261 34.64 261 36 C263.64 36 266.28 36 269 36 C269 37.32 269 38.64 269 40 C271.64 40 274.28 40 277 40 C277 41.32 277 42.64 277 44 C278.32 44 279.64 44 281 44 C281 45.32 281 46.64 281 48 C283.64 48 286.28 48 289 48 C289 49.32 289 50.64 289 52 C290.32 52 291.64 52 293 52 C293 53.32 293 54.64 293 56 C294.32 56 295.64 56 297 56 C297 57.32 297 58.64 297 60 C298.32 60 299.64 60 301 60 C301 61.32 301 62.64 301 64 C302.32 64 303.64 64 305 64 C305 65.32 305 66.64 305 68 C306.32 68 307.64 68 309 68 C309 69.32 309 70.64 309 72 C310.32 72 311.64 72 313 72 C313 73.32 313 74.64 313 76 C314.32 76 315.64 76 317 76 C317 77.32 317 78.64 317 80 C318.32 80 319.64 80 321 80 C321 81.32 321 82.64 321 84 C322.32 84 323.64 84 325 84 C325.33 86.31 325.66 88.62 326 91 C326.99 91.33 327.98 91.66 329 92 C329 93.32 329 94.64 329 96 C330.32 96 331.64 96 333 96 C333.33 98.31 333.66 100.62 334 103 C334.99 103.33 335.98 103.66 337 104 C337 105.32 337 106.64 337 108 C338.32 108 339.64 108 341 108 C341.33 110.31 341.66 112.62 342 115 C342.99 115.33 343.98 115.66 345 116 C345.33 118.31 345.66 120.62 346 123 C346.99 123.33 347.98 123.66 349 124 C349.33 126.31 349.66 128.62 350 131 C350.99 131.33 351.98 131.66 353 132 C353.33 134.31 353.66 136.62 354 139 C354.99 139.33 355.98 139.66 357 140 C358.47666292 143.49029418 358.07164685 147.27436386 358 151 C358.99 151.33 359.98 151.66 361 152 C362.47666292 155.49029418 362.07164685 159.27436386 362 163 C362.99 163.33 363.98 163.66 365 164 C366.16477284 166.98556716 366.13448068 169.94897325 366.125 173.125 C366.12757813 173.99382812 366.13015625 174.86265625 366.1328125 175.7578125 C366 178 366 178 365 180 C366.32 180 367.64 180 369 180 C369.91042911 183.10920129 370.12870382 185.89810897 370.1328125 189.1328125 C370.13410156 190.10347656 370.13539063 191.07414063 370.13671875 192.07421875 C370.13285156 193.08097656 370.12898438 194.08773437 370.125 195.125 C370.12886719 196.13949219 370.13273437 197.15398437 370.13671875 198.19921875 C370.13478516 199.65134766 370.13478516 199.65134766 370.1328125 201.1328125 C370.13168457 202.01855957 370.13055664 202.90430664 370.12939453 203.81689453 C370 206 370 206 369 208 C370.32 208 371.64 208 373 208 C374.22637076 211.80959343 374.14069666 215.59385379 374.12939453 219.55078125 C374.13202301 220.68318741 374.13202301 220.68318741 374.13470459 221.83847046 C374.13909987 224.32983714 374.13619328 226.82113262 374.1328125 229.3125 C374.13348621 231.04597996 374.13445679 232.77945982 374.13571167 234.51293945 C374.13718549 238.14437765 374.13504419 241.77579123 374.13037109 245.40722656 C374.124674 250.06114155 374.12795469 254.71499887 374.13394356 259.36891174 C374.13755766 262.94796177 374.13640667 266.52699814 374.13381577 270.10604858 C374.13314885 271.82205207 374.13396671 273.5380568 374.13629532 275.25405884 C374.13883574 277.65247889 374.1349616 280.05080564 374.12939453 282.44921875 C374.13141876 283.15791107 374.13344299 283.86660339 374.13552856 284.59677124 C374.12097353 287.98294858 373.83027041 290.67891834 373 294 C368.38 294 363.76 294 359 294 C359 291.36 359 288.72 359 286 C357.68 286 356.36 286 355 286 C355 284.68 355 283.36 355 282 C353.68 282 352.36 282 351 282 C351 280.68 351 279.36 351 278 C349.68 278 348.36 278 347 278 C347 276.68 347 275.36 347 274 C344.36 274 341.72 274 339 274 C339 272.68 339 271.36 339 270 C337.68 270 336.36 270 335 270 C335 268.68 335 267.36 335 266 C333.68 266 332.36 266 331 266 C331 264.68 331 263.36 331 262 C329.68 262 328.36 262 327 262 C327 260.68 327 259.36 327 258 C324.36 258 321.72 258 319 258 C319 256.68 319 255.36 319 254 C317.68 254 316.36 254 315 254 C315 252.68 315 251.36 315 250 C313.68 250 312.36 250 311 250 C311 248.68 311 247.36 311 246 C308.36 246 305.72 246 303 246 C303 244.68 303 243.36 303 242 C301.68 242 300.36 242 299 242 C299 240.68 299 239.36 299 238 C297.68 238 296.36 238 295 238 C295 236.68 295 235.36 295 234 C293.68 234 292.36 234 291 234 C291 232.68 291 231.36 291 230 C288.36 230 285.72 230 283 230 C283 228.68 283 227.36 283 226 C281.68 226 280.36 226 279 226 C279 224.68 279 223.36 279 222 C277.68 222 276.36 222 275 222 C275 220.68 275 219.36 275 218 C274.01 218.33 273.02 218.66 272 219 C269.3125 218.5625 269.3125 218.5625 267 218 C267 216.68 267 215.36 267 214 C265.68 214 264.36 214 263 214 C263 212.68 263 211.36 263 210 C261.68 210 260.36 210 259 210 C258.67 209.01 258.34 208.02 258 207 C255.69 206.67 253.38 206.34 251 206 C250.67 205.01 250.34 204.02 250 203 C247.69 202.67 245.38 202.34 243 202 C243 200.68 243 199.36 243 198 C241.68 198 240.36 198 239 198 C238.67 197.01 238.34 196.02 238 195 C235.69 194.67 233.38 194.34 231 194 C231 192.68 231 191.36 231 190 C229.68 190 228.36 190 227 190 C226.67 189.01 226.34 188.02 226 187 C223.69 186.67 221.38 186.34 219 186 C218.67 185.01 218.34 184.02 218 183 C215.69 182.67 213.38 182.34 211 182 C210.67 181.01 210.34 180.02 210 179 C207.69 178.67 205.38 178.34 203 178 C202.67 177.01 202.34 176.02 202 175 C199.69 174.67 197.38 174.34 195 174 C194.67 173.01 194.34 172.02 194 171 C191.69 170.67 189.38 170.34 187 170 C186.67 169.01 186.34 168.02 186 167 C183.69 166.67 181.38 166.34 179 166 C178.67 165.01 178.34 164.02 178 163 C175.69 162.67 173.38 162.34 171 162 C171 160.68 171 159.36 171 158 C169.68 158 168.36 158 167 158 C166.67 157.01 166.34 156.02 166 155 C163.69 154.67 161.38 154.34 159 154 C158.67 153.01 158.34 152.02 158 151 C155.69 150.67 153.38 150.34 151 150 C150.67 149.01 150.34 148.02 150 147 C147.69 146.67 145.38 146.34 143 146 C142.67 145.01 142.34 144.02 142 143 C140.01432292 143.03255208 138.02864583 143.06510417 136.04296875 143.09765625 C134 143 134 143 131 142 C130.67 141.01 130.34 140.02 130 139 C127.69 138.67 125.38 138.34 123 138 C123 137.01 123 136.02 123 135 C120.36 134.67 117.72 134.34 115 134 C115 133.01 115 132.02 115 131 C114.38511719 131.01160156 113.77023437 131.02320313 113.13671875 131.03515625 C112.32847656 131.04417969 111.52023437 131.05320313 110.6875 131.0625 C109.88699219 131.07410156 109.08648438 131.08570313 108.26171875 131.09765625 C106 131 106 131 103 130 C103 129.01 103 128.02 103 127 C100.36 126.67 97.72 126.34 95 126 C95 125.01 95 124.02 95 123 C94.38511719 123.01160156 93.77023437 123.02320313 93.13671875 123.03515625 C92.32847656 123.04417969 91.52023437 123.05320312 90.6875 123.0625 C89.88699219 123.07410156 89.08648438 123.08570313 88.26171875 123.09765625 C86 123 86 123 83 122 C83 121.01 83 120.02 83 119 C78.99745544 118.90818866 78.99745544 118.90818866 75 119 C74.67 119.33 74.34 119.66 74 120 C76.31 120 78.62 120 81 120 C81.33 121.32 81.66 122.64 82 124 C84.31 124 86.62 124 89 124 C89.33 125.32 89.66 126.64 90 128 C92.31 128 94.62 128 97 128 C97.33 129.32 97.66 130.64 98 132 C98.99 132 99.98 132 101 132 C101.33 133.32 101.66 134.64 102 136 C104.31 136 106.62 136 109 136 C109.33 137.32 109.66 138.64 110 140 C110.99 140 111.98 140 113 140 C113.33 141.32 113.66 142.64 114 144 C116.31 144 118.62 144 121 144 C121.33 145.32 121.66 146.64 122 148 C122.99 148 123.98 148 125 148 C125.33 149.32 125.66 150.64 126 152 C128.31 152 130.62 152 133 152 C133.33 153.32 133.66 154.64 134 156 C134.99 156 135.98 156 137 156 C137.33 157.32 137.66 158.64 138 160 C140.31 160 142.62 160 145 160 C145.33 161.32 145.66 162.64 146 164 C146.99 164 147.98 164 149 164 C149.33 164.99 149.66 165.98 150 167 C152.31 167.33 154.62 167.66 157 168 C157.33 168.99 157.66 169.98 158 171 C160.31 171.33 162.62 171.66 165 172 C165.33 173.32 165.66 174.64 166 176 C166.99 176 167.98 176 169 176 C169.33 176.99 169.66 177.98 170 179 C172.31 179.33 174.62 179.66 177 180 C177.33 181.32 177.66 182.64 178 184 C178.99 184 179.98 184 181 184 C181.33 184.99 181.66 185.98 182 187 C184.31 187.33 186.62 187.66 189 188 C189.33 189.32 189.66 190.64 190 192 C190.99 192 191.98 192 193 192 C193.33 192.99 193.66 193.98 194 195 C194.99 195.33 195.98 195.66 197 196 C197.33 196.99 197.66 197.98 198 199 C200.31 199.33 202.62 199.66 205 200 C205.33 200.99 205.66 201.98 206 203 C206.99 203.33 207.98 203.66 209 204 C209.33 204.99 209.66 205.98 210 207 C212.31 207.33 214.62 207.66 217 208 C217.33 208.99 217.66 209.98 218 211 C218.99 211.33 219.98 211.66 221 212 C221.33 212.99 221.66 213.98 222 215 C222.99 215.33 223.98 215.66 225 216 C225.33 216.99 225.66 217.98 226 219 C228.31 219.33 230.62 219.66 233 220 C233.33 220.99 233.66 221.98 234 223 C234.99 223.33 235.98 223.66 237 224 C237.33 224.99 237.66 225.98 238 227 C238.99 227.33 239.98 227.66 241 228 C241.33 228.99 241.66 229.98 242 231 C242.99 231.33 243.98 231.66 245 232 C245.33 232.99 245.66 233.98 246 235 C246.99 235.33 247.98 235.66 249 236 C249.33 236.99 249.66 237.98 250 239 C252.31 239.33 254.62 239.66 257 240 C257.33 240.99 257.66 241.98 258 243 C258.99 243.33 259.98 243.66 261 244 C261.33 244.99 261.66 245.98 262 247 C262.99 247.33 263.98 247.66 265 248 C265.33 248.99 265.66 249.98 266 251 C266.99 251.33 267.98 251.66 269 252 C269.33 252.99 269.66 253.98 270 255 C270.99 255.33 271.98 255.66 273 256 C273.33 256.99 273.66 257.98 274 259 C276.31 259.33 278.62 259.66 281 260 C281.33 260.99 281.66 261.98 282 263 C282.99 263.33 283.98 263.66 285 264 C285.33 264.99 285.66 265.98 286 267 C286.99 267.33 287.98 267.66 289 268 C289.33 268.99 289.66 269.98 290 271 C290.99 271.33 291.98 271.66 293 272 C293.33 272.99 293.66 273.98 294 275 C294.99 275.33 295.98 275.66 297 276 C297.33 276.99 297.66 277.98 298 279 C298.99 279.33 299.98 279.66 301 280 C301.33 280.99 301.66 281.98 302 283 C302.99 283.33 303.98 283.66 305 284 C305.33 284.99 305.66 285.98 306 287 C306.99 287.33 307.98 287.66 309 288 C309.33 288.99 309.66 289.98 310 291 C310.99 291.33 311.98 291.66 313 292 C313.33 292.99 313.66 293.98 314 295 C314.99 295.33 315.98 295.66 317 296 C317.33 296.99 317.66 297.98 318 299 C318.99 299.33 319.98 299.66 321 300 C321.33 300.99 321.66 301.98 322 303 C322.99 303.33 323.98 303.66 325 304 C325.33 304.99 325.66 305.98 326 307 C326.99 307.33 327.98 307.66 329 308 C329.33 308.99 329.66 309.98 330 311 C330.99 311.33 331.98 311.66 333 312 C333.33 312.99 333.66 313.98 334 315 C334.99 315.33 335.98 315.66 337 316 C337.33 316.99 337.66 317.98 338 319 C338.99 319.33 339.98 319.66 341 320 C341.33 320.99 341.66 321.98 342 323 C342.99 323.33 343.98 323.66 345 324 C345.33 324.99 345.66 325.98 346 327 C346.99 327.33 347.98 327.66 349 328 C349.33 328.99 349.66 329.98 350 331 C350.99 331.33 351.98 331.66 353 332 C353.33 332.99 353.66 333.98 354 335 C354.99 335.33 355.98 335.66 357 336 C357.33 336.99 357.66 337.98 358 339 C358.99 339.33 359.98 339.66 361 340 C361.33 340.99 361.66 341.98 362 343 C362.99 343.33 363.98 343.66 365 344 C365.33 346.31 365.66 348.62 366 351 C366.99 351.33 367.98 351.66 369 352 C369.33 352.99 369.66 353.98 370 355 C370.99 355.33 371.98 355.66 373 356 C373.33 356.99 373.66 357.98 374 359 C374.99 359.33 375.98 359.66 377 360 C378.14604997 362.95074936 378.13456723 365.86194842 378.125 369 C378.12757813 369.845625 378.13015625 370.69125 378.1328125 371.5625 C378 374 378 374 377 378 C371.72 378 366.44 378 361 378 C361 379.32 361 380.64 361 382 C353.08 382 345.16 382 337 382 C337 383.32 337 384.64 337 386 C325.12 386 313.24 386 301 386 C301 387.32 301 388.64 301 390 C270.31 390 239.62 390 208 390 C207.67 388.68 207.34 387.36 207 386 C196.77 386 186.54 386 176 386 C175.67 384.68 175.34 383.36 175 382 C168.73 382 162.46 382 156 382 C155.67 380.68 155.34 379.36 155 378 C150.05 378 145.1 378 140 378 C139.67 376.68 139.34 375.36 139 374 C135.37 374 131.74 374 128 374 C127.67 372.68 127.34 371.36 127 370 C123.37 370 119.74 370 116 370 C115.67 368.68 115.34 367.36 115 366 C111.37 366 107.74 366 104 366 C103.67 364.68 103.34 363.36 103 362 C100.69 362 98.38 362 96 362 C95.67 360.68 95.34 359.36 95 358 C92.69 358 90.38 358 88 358 C87.67 356.68 87.34 355.36 87 354 C83.37 354 79.74 354 76 354 C75.67 352.68 75.34 351.36 75 350 C73.68 349.67 72.36 349.34 71 349 C71 348.01 71 347.02 71 346 C68.69 346 66.38 346 64 346 C63.67 344.68 63.34 343.36 63 342 C60.69 342 58.38 342 56 342 C55.67 340.68 55.34 339.36 55 338 C52.69 338 50.38 338 48 338 C47.67 336.68 47.34 335.36 47 334 C45.68 333.67 44.36 333.34 43 333 C43 332.01 43 331.02 43 330 C40.69 330 38.38 330 36 330 C35.67 328.68 35.34 327.36 35 326 C33.68 325.67 32.36 325.34 31 325 C31 324.01 31 323.02 31 322 C28.69 322 26.38 322 24 322 C23.67 320.68 23.34 319.36 23 318 C21.68 317.67 20.36 317.34 19 317 C19 316.01 19 315.02 19 314 C17.68 313.67 16.36 313.34 15 313 C15 312.01 15 311.02 15 310 C13.68 309.67 12.36 309.34 11 309 C11 308.01 11 307.02 11 306 C9.68 305.67 8.36 305.34 7 305 C7 304.01 7 303.02 7 302 C5.68 301.67 4.36 301.34 3 301 C3 300.01 3 299.02 3 298 C0.69 298 -1.62 298 -4 298 C-4.33 296.68 -4.66 295.36 -5 294 C-6.32 293.67 -7.64 293.34 -9 293 C-9 292.01 -9 291.02 -9 290 C-10.32 289.67 -11.64 289.34 -13 289 C-13 288.01 -13 287.02 -13 286 C-14.32 285.67 -15.64 285.34 -17 285 C-17 284.01 -17 283.02 -17 282 C-18.32 281.67 -19.64 281.34 -21 281 C-21 280.01 -21 279.02 -21 278 C-22.32 277.67 -23.64 277.34 -25 277 C-25 274.69 -25 272.38 -25 270 C-26.32 269.67 -27.64 269.34 -29 269 C-29 268.01 -29 267.02 -29 266 C-30.32 265.67 -31.64 265.34 -33 265 C-33 264.01 -33 263.02 -33 262 C-34.32 261.67 -35.64 261.34 -37 261 C-37 258.69 -37 256.38 -37 254 C-38.32 253.67 -39.64 253.34 -41 253 C-41 252.01 -41 251.02 -41 250 C-42.32 249.67 -43.64 249.34 -45 249 C-45 248.01 -45 247.02 -45 246 C-46.32 245.67 -47.64 245.34 -49 245 C-49 242.69 -49 240.38 -49 238 C-50.32 237.67 -51.64 237.34 -53 237 C-53 236.01 -53 235.02 -53 234 C-54.32 233.67 -55.64 233.34 -57 233 C-57 230.69 -57 228.38 -57 226 C-58.32 225.67 -59.64 225.34 -61 225 C-61 224.01 -61 223.02 -61 222 C-62.32 221.67 -63.64 221.34 -65 221 C-65 218.69 -65 216.38 -65 214 C-66.32 213.67 -67.64 213.34 -69 213 C-69 210.69 -69 208.38 -69 206 C-70.32 205.67 -71.64 205.34 -73 205 C-73 202.69 -73 200.38 -73 198 C-74.32 197.67 -75.64 197.34 -77 197 C-77 194.69 -77 192.38 -77 190 C-78.32 189.67 -79.64 189.34 -81 189 C-81 186.69 -81 184.38 -81 182 C-82.32 181.67 -83.64 181.34 -85 181 C-85 178.69 -85 176.38 -85 174 C-86.32 173.67 -87.64 173.34 -89 173 C-89 169.37 -89 165.74 -89 162 C-90.32 161.67 -91.64 161.34 -93 161 C-93 158.69 -93 156.38 -93 154 C-94.32 153.67 -95.64 153.34 -97 153 C-97 149.37 -97 145.74 -97 142 C-98.32 141.67 -99.64 141.34 -101 141 C-101 137.37 -101 133.74 -101 130 C-102.32 129.67 -103.64 129.34 -105 129 C-105 124.05 -105 119.1 -105 114 C-106.32 113.67 -107.64 113.34 -109 113 C-109 109.37 -109 105.74 -109 102 C-110.32 101.67 -111.64 101.34 -113 101 C-113 94.73 -113 88.46 -113 82 C-114.32 81.67 -115.64 81.34 -117 81 C-117 74.73 -117 68.46 -117 62 C-118.32 61.67 -119.64 61.34 -121 61 C-121.0252689 54.18238106 -121.04283244 47.36477411 -121.05493164 40.54711914 C-121.05997333 38.22582549 -121.06680651 35.90453503 -121.07543945 33.58325195 C-121.08751225 30.25471205 -121.09322979 26.92621398 -121.09765625 23.59765625 C-121.10281754 22.55287613 -121.10797882 21.50809601 -121.11329651 20.43165588 C-121.11337204 19.47073532 -121.11344757 18.50981476 -121.11352539 17.51977539 C-121.115746 16.66928116 -121.11796661 15.81878693 -121.12025452 14.94252014 C-121 13 -121 13 -120 12 C-118.64905018 11.90731001 -117.29332909 11.88252674 -115.93920898 11.88647461 C-115.07839218 11.88655014 -114.21757538 11.88662567 -113.33067322 11.88670349 C-112.39526199 11.89186478 -111.45985077 11.89702606 -110.49609375 11.90234375 C-109.54307877 11.9037587 -108.59006378 11.90517365 -107.60816956 11.90663147 C-104.55124835 11.91224848 -101.49439923 11.92480384 -98.4375 11.9375 C-96.37044376 11.94251281 -94.30338638 11.94707609 -92.23632812 11.95117188 C-87.15752412 11.96222344 -82.0787743 11.97949945 -77 12 C-76.67 10.68 -76.34 9.36 -76 8 C-65.77 8 -55.54 8 -45 8 C-44.67 6.68 -44.34 5.36 -44 4 C-29.81 4 -15.62 4 -1 4 C-0.67 2.68 -0.34 1.36 0 0 Z M62 110 C61.67 110.66 61.34 111.32 61 112 C61.66 112 62.32 112 63 112 C62.67 111.34 62.34 110.68 62 110 Z M70 114 C69.67 114.66 69.34 115.32 69 116 C69.66 116 70.32 116 71 116 C70.67 115.34 70.34 114.68 70 114 Z " fill="#FFFFFF" transform="translate(528,91)"/>
<path d="M0 0 C1.15185791 -0.00276947 2.30371582 -0.00553894 3.49047852 -0.00839233 C14.66575488 -0.02805025 25.83416293 0.00690886 37 0.5078125 C37.78963135 0.53817596 38.5792627 0.56853943 39.39282227 0.599823 C44.76059164 0.88559164 44.76059164 0.88559164 47 3.125 C48.27991355 15.06696514 45.97491184 27.16589037 44.1875 38.9375 C43.92288531 40.74009622 43.65920963 42.54283055 43.39648438 44.34570312 C42.13938339 52.91119172 40.81304744 61.46634794 39.42578125 70.01171875 C39.31179489 70.72987259 39.19780853 71.44802643 39.08036804 72.1879425 C38.34889979 76.61031463 37.2740535 80.83069993 36 85.125 C35.45455763 88.16281099 35.00671668 91.20382282 34.5625 94.2578125 C34.00665833 97.09106103 33.10587428 99.46740489 32 102.125 C31.731875 103.40375 31.46375 104.6825 31.1875 106 C29.73261821 112.88491305 27.27324484 119.47800446 25 126.125 C24.35299322 128.10378337 23.707076 130.08292349 23.0625 132.0625 C19.3552418 143.1107179 15.21342508 153.90450916 10.5 164.5625 C10.14462158 165.37847656 9.78924316 166.19445313 9.4230957 167.03515625 C6.81891929 172.82195315 3.6082646 177.91764699 0 183.125 C-1.13206207 184.91221289 -2.25833218 186.70312843 -3.375 188.5 C-8.74493347 196.96207098 -14.72626737 204.9130983 -21.04296875 212.6875 C-23.62446592 215.90277791 -26.09364026 219.19970714 -28.5546875 222.5078125 C-29.03164063 223.04148437 -29.50859375 223.57515625 -30 224.125 C-30.66 224.125 -31.32 224.125 -32 224.125 C-32.2578125 224.71925781 -32.515625 225.31351563 -32.78125 225.92578125 C-34.10696947 228.31802503 -35.40378864 229.57281639 -37.5 231.3125 C-40.60844853 233.93629795 -43.63497148 236.61687139 -46.625 239.375 C-56.10195051 247.90571121 -66.07422966 255.53960418 -77 262.125 C-77.79535156 262.63546875 -78.59070313 263.1459375 -79.41015625 263.671875 C-86.26713638 267.99790474 -93.51346286 271.05360015 -101 274.125 C-102.00160156 274.558125 -103.00320313 274.99125 -104.03515625 275.4375 C-116.67348543 280.88065658 -129.6719259 284.77500942 -143 288.125 C-144.65322266 288.56005859 -144.65322266 288.56005859 -146.33984375 289.00390625 C-159.33494149 292.26449441 -172.53794984 292.33386777 -185.875 292.3125 C-186.57788147 292.31189575 -187.28076294 292.3112915 -188.00494385 292.31066895 C-198.13323487 292.2870686 -208.0172179 292.06065927 -218 290.125 C-219.0842627 289.91568848 -219.0842627 289.91568848 -220.19042969 289.70214844 C-246.53844347 284.50754212 -267.61722193 274.14396256 -289 258.125 C-290.14082031 257.33222656 -290.14082031 257.33222656 -291.3046875 256.5234375 C-292.14386719 255.83121094 -292.14386719 255.83121094 -293 255.125 C-293 254.465 -293 253.805 -293 253.125 C-293.54527344 252.91746094 -294.09054687 252.70992187 -294.65234375 252.49609375 C-310.52973432 243.22327497 -321.06114776 218.89995138 -325.56494141 202.00585938 C-331.1007939 180.60864687 -333.25830981 156.58967111 -327 135.125 C-326.68675781 133.98289062 -326.37351562 132.84078125 -326.05078125 131.6640625 C-324.19034608 125.23710463 -321.98349889 119.11308258 -319 113.125 C-318.60425781 112.3103125 -318.20851563 111.495625 -317.80078125 110.65625 C-302.50493023 80.85344571 -274.7903906 56.52495863 -245 42.125 C-241.96017891 40.59388618 -238.92337144 39.05691608 -235.88671875 37.51953125 C-232.63145605 35.94696185 -229.33256797 34.52606864 -226 33.125 C-224.93523437 32.67640625 -223.87046875 32.2278125 -222.7734375 31.765625 C-215.32536436 28.71790771 -207.81262144 25.94964601 -200.1875 23.375 C-199.32882324 23.08141602 -198.47014648 22.78783203 -197.58544922 22.48535156 C-192.65605879 20.84758597 -187.7903253 19.59211299 -182.68579102 18.63916016 C-179.66823854 18.06148854 -176.6766876 17.3988265 -173.6796875 16.72265625 C-172.5659375 16.47193359 -171.4521875 16.22121094 -170.3046875 15.96289062 C-168.04136676 15.45119453 -165.77833893 14.93820088 -163.515625 14.42382812 C-149.22481623 11.21250271 -134.87826569 8.6466321 -120.375 6.625 C-119.61220734 6.51861206 -118.84941467 6.41222412 -118.06350708 6.3026123 C-78.83324193 0.89808031 -39.54176146 0.06271892 0 0 Z " fill="#FFFFFF" transform="translate(1003,1364.875)"/>
<path d="M0 0 C2.00093689 -0.00218046 4.00183416 -0.02068039 6.00268555 -0.03930664 C13.32843344 -0.05028977 20.11227257 0.30569239 27.20385742 2.18530273 C28.18986938 2.44283325 28.18986938 2.44283325 29.19580078 2.70556641 C61.33662637 11.60885371 87.212634 27.87805904 104.20385742 57.18530273 C105.76294784 60.12663152 107.0545878 63.06275885 108.20385742 66.18530273 C108.53901367 67.07217773 108.87416992 67.95905273 109.21948242 68.87280273 C117.49660315 92.09815643 117.95710167 116.4927081 107.76245117 139.23217773 C104.64578315 145.13744346 100.98632819 150.68867855 97.20385742 156.18530273 C96.65987305 156.97936523 96.11588867 157.77342773 95.55541992 158.59155273 C94.88639648 159.38045898 94.88639648 159.38045898 94.20385742 160.18530273 C93.54385742 160.18530273 92.88385742 160.18530273 92.20385742 160.18530273 C91.94604492 160.76666992 91.68823242 161.34803711 91.42260742 161.94702148 C87.30200341 169.51466924 79.27324273 174.63932199 72.20385742 179.18530273 C71.11331055 179.89686523 70.02276367 180.60842773 68.89916992 181.34155273 C55.6603349 189.75505189 41.1801543 195.61506567 26.20385742 200.18530273 C24.70991455 200.64864014 24.70991455 200.64864014 23.18579102 201.12133789 C13.92022892 203.89173957 4.66520266 205.7058628 -4.85864258 207.31030273 C-6.32295154 207.56353765 -7.78714488 207.81744212 -9.2512207 208.07202148 C-12.78336252 208.68332036 -16.31792604 209.27839841 -19.85455322 209.86315918 C-21.65603127 210.16205582 -23.45636553 210.46782409 -25.2565918 210.77416992 C-38.98494962 213.02444763 -52.76363568 213.38438745 -66.64306641 213.68798828 C-69.33028133 213.74717804 -72.0172941 213.81251249 -74.7043457 213.87866211 C-79.15001074 213.98471778 -83.59568436 214.0680436 -88.04205322 214.13824463 C-89.93941192 214.17066409 -91.83667736 214.20888885 -93.73382568 214.25189209 C-96.63866816 214.31605755 -99.54322151 214.36021939 -102.44848633 214.40014648 C-103.34201309 214.42363663 -104.23553986 214.44712677 -105.15614319 214.47132874 C-106.39707985 214.48237892 -106.39707985 214.48237892 -107.66308594 214.49365234 C-108.3907164 214.50657822 -109.11834686 214.51950409 -109.86802673 214.53282166 C-112.40824741 214.07497844 -113.27474964 213.24428313 -114.79614258 211.18530273 C-115.02658945 208.38899894 -115.07529513 205.83662997 -114.97583008 203.04858398 C-114.95763718 202.22888123 -114.93944427 201.40917847 -114.92070007 200.56463623 C-114.85472773 197.87490956 -114.76428557 195.18671638 -114.67114258 192.49780273 C-114.64414276 191.58279999 -114.61714294 190.66779724 -114.58932495 189.72506714 C-114.00780669 170.02895957 -113.38187497 149.76615631 -109.24023438 130.45361328 C-108.53401857 126.84643845 -108.24682438 123.21761022 -107.92114258 119.56030273 C-107.02926435 110.82990699 -105.24940068 102.60093434 -102.79614258 94.18530273 C-102.57941895 93.43635742 -102.36269531 92.68741211 -102.1394043 91.91577148 C-96.36142404 72.2175547 -89.11635627 52.77128517 -76.79614258 36.18530273 C-76.30243164 35.4750293 -75.8087207 34.76475586 -75.30004883 34.03295898 C-66.74177032 21.94931915 -53.99873137 14.34273327 -40.79614258 8.18530273 C-39.68239258 7.64905273 -38.56864258 7.11280273 -37.42114258 6.56030273 C-24.94650293 1.82854287 -13.27879765 -0.0016168 0 0 Z " fill="#FFFFFF" transform="translate(1325.796142578125,1008.814697265625)"/>
</svg>
